<svg width="800" height="728" viewBox="0 0 800 728" fill="none" xmlns="http://www.w3.org/2000/svg">
<path d="M78.8913 637.798C78.8913 637.798 59.905 531.657 59.8544 509.833C59.7937 479.628 81.2393 467.603 81.2393 467.603L72.91 441.993H118.706L111.47 467.429C111.47 467.429 135.607 481.222 132.238 512.55C125.943 571.115 115.923 637.755 115.923 637.755L78.8913 637.798Z" fill="#EFF0F7"/>
<path d="M296.9 714.251C294.339 713.033 291.56 712.437 288.762 712.506C285.964 712.577 283.213 713.31 280.707 714.655C280.573 709.139 279.148 703.75 276.566 698.987C273.982 694.224 270.325 690.243 265.933 687.412C261.54 684.582 256.555 682.994 251.441 682.797C246.329 682.599 241.251 683.799 236.682 686.284C235.138 681.734 232.687 677.605 229.502 674.188C226.316 670.772 222.474 668.151 218.247 666.511C214.019 664.871 209.509 664.251 205.035 664.696C200.561 665.141 196.232 666.64 192.354 669.086C188.503 664.192 183.394 660.638 177.672 658.873C171.949 657.107 165.87 657.21 160.2 659.167C154.619 661.338 149.756 665.24 146.223 670.38C142.691 675.521 140.645 681.672 140.344 688.062C136.444 686.999 132.355 687.043 128.476 688.19C124.597 689.337 121.06 691.549 118.209 694.609C112.592 700.775 105.154 719.707 107.37 728L307.365 727.564C306.633 724.652 305.317 721.951 303.508 719.65C301.699 717.349 299.444 715.505 296.9 714.251Z" fill="#EFF0F7"/>
<path d="M674.765 637.881C674.765 638.033 523.704 638.164 337.403 638.164C151.102 638.164 0 638.022 0 637.881C0 637.738 151.031 637.586 337.403 637.586C523.775 637.586 674.765 637.717 674.765 637.881Z" fill="#DCDDEB"/>
<path d="M54.3892 541.171C49.6188 538.511 43.997 538.167 38.6944 539.084C35.8496 539.596 32.8887 540.513 30.9535 542.819C29.0182 545.125 28.6505 549.183 30.876 551.166C32.3141 552.212 34.0457 552.684 35.7722 552.501C39.9136 552.449 44.4808 551.655 47.8385 554.347C49.7252 555.892 50.9832 558.438 53.2474 559.199C54.3798 559.482 55.567 559.359 56.6287 558.849C57.6905 558.339 58.5689 557.469 59.1306 556.372C60.2135 554.12 60.4525 551.505 59.7982 549.069C59.5186 547.393 58.8854 545.81 57.9475 544.44C57.0096 543.071 55.7921 541.952 54.3892 541.171Z" fill="#05C168"/>
<path d="M65.3328 518.406C62.4299 522.903 56.7306 521.411 54.1084 518.667C51.4861 515.923 50.3637 511.948 49.3477 508.12C47.0351 499.461 44.7031 490.384 46.4449 481.537C46.8589 478.865 47.9468 476.367 49.5896 474.317C50.4217 473.307 51.4852 472.55 52.6738 472.121C53.8624 471.692 55.1346 471.609 56.363 471.876C59.2658 472.69 60.9978 475.716 62.2848 478.595C66.0739 487.078 68.0575 496.367 68.0905 505.783C68.0905 510.164 67.6261 514.755 65.3424 518.375" fill="#05C168"/>
<path d="M73.3447 524.813C70.1806 520.754 69.571 514.839 70.9836 509.758C72.3964 504.677 75.5799 500.369 79.2568 496.821C83.5821 492.689 88.6098 489.5 94.0614 487.432C96.1745 486.518 98.4445 486.102 100.718 486.211C101.856 486.283 102.96 486.655 103.934 487.29C104.909 487.926 105.725 488.809 106.312 489.863C107.87 493.065 106.379 496.957 104.763 500.129C101.911 505.713 98.6605 511.051 95.0388 516.091C92.1359 520.149 88.7783 524.145 84.3368 525.971C79.8955 527.796 75.2799 527.588 72.9189 524.27" fill="#05C168"/>
<path d="M65.5261 586.219C65.3643 585.538 65.2766 584.837 65.2648 584.133C65.1294 582.652 64.9552 580.785 64.7617 578.562C64.5019 575.817 64.1144 573.086 63.6005 570.383C62.916 567.094 61.9939 563.867 60.8428 560.733C59.7052 557.604 58.1644 554.665 56.266 552C54.7155 549.816 52.7319 548.035 50.4602 546.784C48.9355 545.974 47.3033 545.425 45.6221 545.156C44.9697 545.128 44.3214 545.031 43.6869 544.864C44.3296 544.781 44.9793 544.781 45.6221 544.864C47.3814 545 49.1028 545.481 50.7021 546.284C53.0786 547.494 55.1646 549.279 56.7981 551.499C58.7778 554.2 60.3755 557.203 61.5395 560.409C62.7122 563.586 63.6252 566.867 64.2682 570.216C64.7467 572.953 65.0699 575.72 65.2358 578.5C65.4002 580.868 65.4583 582.788 65.4873 584.113C65.5769 584.811 65.5899 585.518 65.5261 586.219Z" fill="#211F54"/>
<path d="M65.1686 581.932C65.1352 581.616 65.1352 581.298 65.1686 580.983C65.1686 580.273 65.1686 579.375 65.1686 578.27C65.1686 575.923 65.1686 572.522 65.0526 568.317C64.859 559.909 64.1914 550.852 62.8948 538.062C61.6659 526.064 59.992 512.105 58.2792 503.029C57.9019 500.942 57.5245 499.106 57.1762 497.478C56.8278 495.85 56.5472 494.442 56.2665 493.306C55.9859 492.168 55.8409 491.365 55.6861 490.665C55.5992 490.364 55.5472 490.053 55.5312 489.737C55.6601 490.02 55.7607 490.318 55.8311 490.624L56.5665 493.222C56.8858 494.349 57.2245 495.747 57.6019 497.395C57.9793 499.043 58.405 500.869 58.8211 502.935C60.9683 513.671 62.5833 524.523 63.6592 535.443C64.9558 548.223 65.5944 559.867 65.5944 568.296C65.5944 572.47 65.5944 575.923 65.459 578.27C65.4009 579.375 65.3428 580.273 65.3042 580.983C65.2989 581.304 65.2533 581.624 65.1686 581.932Z" fill="#211F54"/>
<path d="M65.1198 559.48C65.0457 558.539 65.0457 557.594 65.1198 556.653C65.2166 554.827 65.4489 552.199 65.923 548.974C66.4991 545.207 67.2712 541.476 68.2356 537.801C69.3672 533.279 70.8164 528.856 72.5705 524.572C75.5777 516.676 79.8927 509.436 85.3044 503.206C86.2401 502.136 87.2388 501.132 88.2944 500.201C88.7588 499.784 89.1652 499.366 89.5716 499.033L90.7425 498.167C91.4434 497.592 92.1878 497.084 92.968 496.643C93.0938 496.831 89.8328 498.897 85.7205 503.613C80.4935 509.901 76.2955 517.101 73.3059 524.906C71.5849 529.168 70.1302 533.549 68.9517 538.02C67.9558 541.658 67.1323 545.35 66.4842 549.079C65.9424 552.271 65.6327 554.88 65.4391 556.674C65.396 557.617 65.2893 558.554 65.1198 559.48Z" fill="#211F54"/>
<path d="M85.2464 599.083L83.1563 629.902H46.4351L44.3451 599.083H85.2464Z" fill="#4B3CFB"/>
<path d="M88.7976 586.94H39.9715V599.083H88.7976V586.94Z" fill="#3F37A0"/>
<path d="M88.7879 628.723V632.092H86.4947H40.7746V628.723H88.7879Z" fill="#3F37A0"/>
<path d="M84.2498 638.019L86.4947 632.093H42.526L45.1483 638.019H84.2498Z" fill="#4B3CFB"/>
<path d="M618.762 335.136C623.532 332.476 629.155 332.131 634.456 333.049C637.301 333.561 640.262 334.478 642.197 336.784C644.132 339.09 644.5 343.148 642.275 345.131C640.837 346.176 639.105 346.649 637.379 346.466C633.237 346.413 628.67 345.621 625.312 348.312C623.426 349.857 622.168 352.402 619.903 353.164C618.771 353.447 617.584 353.324 616.522 352.814C615.461 352.303 614.582 351.434 614.021 350.336C612.938 348.085 612.699 345.47 613.352 343.034C613.633 341.358 614.265 339.775 615.203 338.405C616.141 337.036 617.359 335.917 618.762 335.136Z" fill="#05C168"/>
<path d="M607.818 312.371C610.721 316.868 616.42 315.376 619.042 312.633C621.665 309.888 622.786 305.913 623.803 302.085C626.115 293.426 628.447 284.349 626.706 275.502C626.292 272.83 625.203 270.332 623.561 268.282C622.729 267.272 621.666 266.514 620.477 266.086C619.288 265.658 618.016 265.574 616.788 265.841C613.885 266.655 612.153 269.68 610.866 272.56C607.077 281.043 605.093 290.332 605.06 299.748C605.06 304.13 605.525 308.72 607.808 312.34" fill="#05C168"/>
<path d="M599.807 318.777C602.971 314.719 603.58 308.804 602.167 303.723C600.754 298.642 597.572 294.334 593.894 290.787C589.569 286.654 584.542 283.465 579.09 281.397C576.977 280.483 574.707 280.067 572.432 280.176C571.296 280.248 570.191 280.619 569.216 281.255C568.243 281.892 567.426 282.774 566.84 283.827C565.282 287.031 566.772 290.922 568.388 294.094C571.24 299.678 574.491 305.016 578.112 310.056C581.016 314.114 584.373 318.11 588.814 319.936C593.256 321.761 597.872 321.553 600.232 318.235" fill="#05C168"/>
<path d="M607.625 380.185C607.787 379.502 607.875 378.803 607.886 378.098C608.021 376.616 608.196 374.749 608.389 372.527C608.649 369.782 609.036 367.051 609.55 364.348C610.235 361.059 611.157 357.832 612.308 354.697C613.446 351.569 614.987 348.63 616.885 345.966C618.435 343.781 620.419 341.999 622.691 340.749C624.216 339.939 625.847 339.39 627.529 339.122C628.182 339.093 628.829 338.996 629.464 338.829C628.822 338.746 628.172 338.746 627.529 338.829C625.77 338.965 624.048 339.447 622.449 340.248C620.073 341.459 617.987 343.245 616.353 345.464C614.373 348.165 612.775 351.169 611.612 354.374C610.438 357.551 609.526 360.832 608.883 364.181C608.404 366.918 608.081 369.684 607.915 372.464C607.751 374.833 607.693 376.753 607.663 378.077C607.574 378.775 607.561 379.483 607.625 380.185Z" fill="#211F54"/>
<path d="M607.983 375.896C608.016 375.581 608.016 375.263 607.983 374.947C607.983 374.237 607.983 373.341 607.983 372.234C607.983 369.887 607.983 366.486 608.098 362.281C608.292 353.873 608.96 344.817 610.256 332.027C611.485 320.029 613.159 306.07 614.872 296.993C615.249 294.906 615.626 293.07 615.975 291.443C616.323 289.816 616.604 288.406 616.884 287.27C617.165 286.132 617.311 285.329 617.465 284.63C617.552 284.328 617.603 284.017 617.62 283.701C617.491 283.985 617.39 284.282 617.32 284.588L616.585 287.186C616.266 288.313 615.927 289.711 615.549 291.359C615.172 293.007 614.746 294.833 614.33 296.899C612.183 307.635 610.568 318.487 609.492 329.408C608.195 342.188 607.556 353.831 607.556 362.26C607.556 366.434 607.556 369.887 607.692 372.234C607.75 373.341 607.808 374.237 607.846 374.947C607.852 375.269 607.898 375.588 607.983 375.896Z" fill="#211F54"/>
<path d="M608.031 353.446C608.106 352.506 608.106 351.56 608.031 350.618C607.935 348.793 607.702 346.164 607.229 342.94C606.653 339.172 605.88 335.441 604.916 331.767C603.784 327.244 602.335 322.823 600.581 318.538C597.574 310.641 593.259 303.402 587.847 297.171C586.911 296.102 585.913 295.097 584.857 294.166C584.393 293.749 583.986 293.332 583.579 292.998L582.409 292.132C581.708 291.558 580.963 291.049 580.184 290.609C580.057 290.797 583.319 292.863 587.43 297.578C592.658 303.866 596.856 311.067 599.846 318.872C601.567 323.133 603.021 327.515 604.2 331.986C605.196 335.625 606.019 339.316 606.667 343.044C607.209 346.237 607.519 348.845 607.712 350.639C607.755 351.582 607.862 352.52 608.031 353.446Z" fill="#211F54"/>
<path d="M582.339 537.302H568.966V594.633H582.339V537.302Z" fill="#EFF0F7"/>
<path d="M671.269 537.302H657.896V594.633H671.269V537.302Z" fill="#DCDDEB"/>
<path d="M757.026 405.161H568.781V537.197H757.026V405.161Z" fill="#EFF0F7"/>
<path d="M734.145 471.205C734.131 470.956 734.131 470.707 734.145 470.458C734.145 469.933 734.145 469.226 734.145 468.317C734.145 466.399 734.145 463.632 734.145 460.057C734.145 452.849 734.052 442.388 733.995 429.16L734.295 429.483L587.472 429.686L587.959 429.16V434.512C587.959 436.309 587.959 438.087 587.959 439.884V471.165L587.472 470.64L692.209 470.882L723.057 471.023H731.373H733.546H734.313H733.602H731.504H723.282L692.547 471.185L587.472 471.407H587.004V450.526C587.004 447.012 587.004 443.479 587.004 439.924V429.201L587.509 428.676L734.333 428.878H734.37V429.201C734.37 442.509 734.258 453.03 734.22 460.28C734.22 463.834 734.22 466.561 734.22 468.479C734.22 469.368 734.22 470.054 734.22 470.498C734.22 470.943 734.145 471.205 734.145 471.205Z" fill="#DCDDEB"/>
<path d="M667.147 450.183C667.147 451.554 666.77 452.893 666.064 454.031C665.358 455.17 664.355 456.058 663.181 456.582C662.007 457.107 660.716 457.244 659.469 456.977C658.223 456.709 657.078 456.05 656.18 455.081C655.282 454.112 654.67 452.878 654.422 451.535C654.174 450.19 654.301 448.798 654.787 447.532C655.274 446.267 656.097 445.185 657.154 444.424C658.209 443.663 659.452 443.256 660.723 443.256C662.426 443.256 664.061 443.986 665.265 445.285C666.47 446.584 667.147 448.346 667.147 450.183Z" fill="#DCDDEB"/>
<path d="M596.293 355.775L603.486 366.922C603.486 366.922 587.303 371.769 587.303 387.258C587.303 402.747 597.192 405.656 607.906 405.656C618.619 405.656 629.014 402.262 628.508 386.774C628.003 371.284 614.574 365.468 614.574 365.468L621.316 355.775H596.293Z" fill="#0075FF"/>
<path d="M523.884 70.9249C524.306 70.4886 527.209 72.7272 531.01 77.3563C533.228 80.0765 535.252 82.9749 537.063 86.0263C539.279 89.7747 541.226 93.7007 542.887 97.7698C544.502 101.862 545.831 106.08 546.863 110.386C547.695 113.901 548.283 117.478 548.622 121.086C549.151 127.251 548.623 131.065 548.095 131.103C546.722 131.103 545.473 116.287 538.717 99.7432C531.959 83.1996 522.863 71.9304 523.884 70.9249Z" fill="#05C168"/>
<path d="M552.582 143.416C551.984 143.416 550.348 135.353 548.816 121.978C547.286 108.603 546.001 90.0296 545.508 69.5023C545.016 48.975 545.209 30.4207 545.508 16.9888C545.808 3.55682 546.476 -4.75278 547.11 -4.75278C547.743 -4.75278 548.306 3.5568 548.746 16.9698C549.186 30.3827 549.503 48.9371 550.013 69.3695C550.524 89.802 551.262 108.281 551.984 121.655C552.705 135.031 553.251 143.416 552.582 143.416Z" fill="#05C168"/>
<path d="M580.348 26.8352C580.947 27.1957 578.589 32.9061 575.404 42.4298C572.219 51.9537 568.26 65.1959 564.389 80.1076C560.518 95.0194 557.597 108.565 555.802 118.544C554.008 128.523 553.268 134.67 552.583 134.651C551.896 134.632 551.527 128.219 552.583 118.013C554.103 104.757 556.568 91.6468 559.955 78.7986C563.201 65.9082 567.359 53.3055 572.395 41.1018C576.389 31.7489 579.856 26.5126 580.348 26.8352Z" fill="#05C168"/>
<path d="M516.844 126.341V142.676C516.84 147.256 517.672 151.791 519.295 156.024C520.917 160.257 523.298 164.103 526.3 167.344C529.301 170.584 532.866 173.155 536.79 174.908C540.714 176.662 544.92 177.565 549.168 177.565C553.414 177.567 557.62 176.667 561.544 174.917C565.467 173.167 569.033 170.6 572.036 167.363C575.039 164.128 577.422 160.285 579.047 156.055C580.672 151.826 581.509 147.292 581.509 142.714V126.341H516.844Z" fill="#6E7191"/>
<path d="M772.019 177.603H473.647V196.214H772.019V177.603Z" fill="#EFF0F7"/>
<path d="M540.053 196.214H530.217V228.427H540.053V196.214Z" fill="#DCDDEB"/>
<path d="M703.729 196.214H693.892V228.427H703.729V196.214Z" fill="#DCDDEB"/>
<path d="M799.344 376.771V405.144H686.16C682.683 405.144 679.347 403.654 676.889 401.003C674.43 398.352 673.049 394.757 673.049 391.008C673.049 387.258 674.43 383.663 676.889 381.012C679.347 378.361 682.683 376.871 686.16 376.871" fill="#3F37A0"/>
<path d="M799.344 349.509V377.882H686.16C682.683 377.882 679.347 376.392 676.889 373.741C674.43 371.09 673.049 367.495 673.049 363.746C673.049 359.997 674.43 356.401 676.889 353.75C679.347 351.099 682.683 349.609 686.16 349.609L799.344 349.509Z" fill="#4B3CFB"/>
<path d="M644.15 110.557L637.394 178.172H723.982L731.178 110.557H644.15Z" fill="#DCDDEB"/>
<path d="M647.704 115.414L641.123 174.587H719.284L725.619 115.414H647.704Z" fill="white"/>
<path d="M660.867 125.355L656.819 164.626H706.14L708.674 125.355H660.867Z" fill="#4B3CFB"/>
<g filter="url(#filter0_i_1_50)">
<path d="M551.362 583.634L562.165 638.283H548.308L525.107 582.714L551.362 583.634Z" fill="#6E7191"/>
<path d="M551.362 583.635H550.849H549.473L544.209 583.496L525.07 582.932L525.244 582.655L544.988 629.791C546.169 632.638 547.339 635.443 548.501 638.205L548.281 638.046H562.138L561.917 638.343C558.827 622.523 556.168 608.858 554.27 599.158C553.352 594.313 552.6 590.457 552.086 587.778C551.839 586.463 551.647 585.444 551.518 584.722C551.454 584.386 551.408 584.129 551.371 583.921C551.363 583.829 551.363 583.737 551.371 583.644C551.398 583.725 551.421 583.808 551.435 583.892L551.601 584.653C551.748 585.365 551.958 586.363 552.224 587.619L554.517 598.95C556.47 608.68 559.203 622.354 562.385 638.235L562.449 638.531H548.153L548.097 638.383L544.576 629.968C537.056 611.883 530.169 595.361 524.941 582.784L524.823 582.497H525.107L544.365 583.269L549.593 583.506L550.94 583.575C551.082 583.585 551.223 583.604 551.362 583.635Z" fill="#6E7191"/>
<path d="M168.314 583.634L157.511 638.283H171.358L194.569 582.714L168.314 583.634Z" fill="#6E7191"/>
<path d="M168.314 583.635C168.463 583.622 168.613 583.622 168.762 583.635L170.111 583.566L175.329 583.328L194.587 582.557H194.881L194.761 582.843L175.118 630.028C173.932 632.876 172.761 635.681 171.605 638.443L171.541 638.59H157.226L157.281 638.294C160.463 622.414 163.206 608.74 165.15 599.01C166.13 594.204 166.91 590.368 167.452 587.708C167.726 586.413 167.928 585.414 168.074 584.742L168.249 583.981C168.249 583.813 168.304 583.724 168.314 583.733C168.303 583.827 168.287 583.919 168.267 584.01C168.267 584.218 168.185 584.475 168.13 584.811C167.993 585.533 167.8 586.552 167.562 587.867C167.048 590.546 166.304 594.403 165.369 599.247C163.48 608.947 160.784 622.592 157.731 638.432L157.51 638.135H171.358L171.147 638.294C172.296 635.532 173.467 632.727 174.659 629.88L194.404 582.745L194.568 583.021L175.43 583.586L170.175 583.724H168.79L168.314 583.635Z" fill="#6E7191"/>
<path d="M581.13 529.055H170.469V599.949H581.13V529.055Z" fill="#CBCDDC"/>
<path d="M370.269 472.318V392.426C370.267 391.023 370.521 389.633 371.017 388.336C371.513 387.04 372.242 385.862 373.16 384.869C374.08 383.876 375.172 383.088 376.373 382.551C377.575 382.013 378.863 381.737 380.164 381.737H553.168C555.79 381.737 558.305 382.86 560.159 384.859C562.012 386.858 563.055 389.569 563.055 392.396V503.415L370.012 509.348L370.269 472.318Z" fill="#CBCDDC"/>
<path d="M176.595 472.318V392.426C176.596 391.02 176.854 389.628 177.355 388.33C177.855 387.032 178.587 385.852 179.511 384.86C180.434 383.867 181.53 383.081 182.735 382.545C183.941 382.009 185.232 381.734 186.535 381.737H360.338C362.966 381.731 365.488 382.851 367.35 384.85C369.212 386.848 370.262 389.563 370.27 392.396L370.013 509.308L176.595 503.376V472.318Z" fill="#CBCDDC"/>
<path d="M606.68 599.187H562.312C558.167 599.187 554.811 594.441 554.811 588.587V462.361C554.811 456.507 558.167 451.761 562.431 451.761H606.79C610.816 451.761 614.126 456.507 614.126 462.361V588.587C614.181 594.441 610.825 599.187 606.68 599.187Z" fill="#CBCDDC"/>
<path d="M606.68 599.187C606.68 599.187 607.01 599.187 607.597 599.059C608.537 598.879 609.426 598.466 610.192 597.852C611.422 596.841 612.391 595.507 613.008 593.977C613.413 593.009 613.699 591.989 613.86 590.941C614.022 589.744 614.083 588.532 614.044 587.323C614.044 577.019 613.998 562.118 613.962 543.707C613.925 525.297 613.962 503.366 613.962 479.013C613.962 475.966 613.962 472.889 613.962 469.777V465.071C614.012 463.5 613.966 461.928 613.823 460.364C613.613 458.806 613.127 457.305 612.393 455.944C611.67 454.569 610.602 453.441 609.312 452.691C608.67 452.322 607.964 452.103 607.239 452.049C606.514 451.979 605.726 452.049 604.974 452.049H562.349C560.76 452.115 559.252 452.82 558.122 454.026C556.987 455.215 556.141 456.684 555.654 458.307C555.187 459.939 554.983 461.644 555.049 463.35V488.712C555.049 501.962 555.049 514.747 555.049 526.919C555.049 539.09 555.049 550.649 555.049 561.526C555.049 566.931 555.049 572.155 555.049 577.198V584.584C555.049 585.78 555.049 586.977 555.049 588.153C555.021 589.305 555.119 590.457 555.343 591.584C555.743 593.766 556.758 595.762 558.249 597.299C558.975 598.016 559.84 598.55 560.781 598.861C561.718 599.096 562.682 599.182 563.642 599.118H574.509H591.933L602.938 599.168H605.799H606.771H605.799H602.938H591.933H574.509H563.642C562.654 599.24 561.661 599.149 560.698 598.901C559.708 598.589 558.798 598.034 558.039 597.279C556.485 595.687 555.427 593.614 555.012 591.347C554.784 590.194 554.679 589.016 554.701 587.836V584.267C554.701 581.854 554.701 579.392 554.701 576.881C554.701 571.851 554.701 566.627 554.701 561.209C554.701 550.332 554.701 538.814 554.701 526.602C554.701 514.39 554.701 501.645 554.701 488.395C554.701 481.804 554.701 475.067 554.701 468.185V463.033C554.637 461.274 554.851 459.515 555.333 457.832C555.841 456.125 556.733 454.58 557.929 453.334C559.15 452.059 560.769 451.322 562.468 451.267H604.956C605.726 451.267 606.46 451.267 607.258 451.267C608.043 451.335 608.807 451.574 609.504 451.969C610.871 452.763 612.003 453.955 612.769 455.41C613.534 456.825 614.039 458.386 614.254 460.008C614.399 461.598 614.448 463.197 614.401 464.794C614.401 466.366 614.401 467.938 614.401 469.5V478.736C614.401 503.089 614.401 525.01 614.347 543.43C614.291 561.852 614.291 576.743 614.273 587.046C614.308 588.266 614.238 589.488 614.062 590.694C613.886 591.756 613.577 592.787 613.145 593.759C612.519 595.326 611.523 596.691 610.256 597.714C609.474 598.323 608.569 598.724 607.615 598.881C607.312 599.013 606.999 599.116 606.68 599.187Z" fill="#6E7191"/>
<path d="M550.014 501.971H377.532C373.177 501.971 369.646 505.778 369.646 510.475V534.433C369.646 539.129 373.177 542.937 377.532 542.937H550.014C554.37 542.937 557.901 539.129 557.901 534.433V510.475C557.901 505.778 554.37 501.971 550.014 501.971Z" fill="#CBCDDC"/>
<path d="M550.014 542.907C550.014 542.907 550.399 542.907 551.133 542.778C552.569 542.541 553.915 541.88 555.025 540.868C556.134 539.855 556.961 538.531 557.414 537.044C557.745 535.862 557.875 534.627 557.8 533.395C557.8 532.07 557.8 530.656 557.8 529.163C557.8 526.197 557.8 522.834 557.8 519.196C557.8 517.377 557.8 515.468 557.8 513.501C557.8 511.533 558.019 509.417 557.277 507.479C556.55 505.446 555.115 503.8 553.279 502.892C551.398 501.903 549.17 502.189 546.942 502.14H532.773L377.523 502.288C375.685 502.291 373.91 503.011 372.525 504.316C371.143 505.602 370.244 507.388 369.994 509.338C369.912 510.324 369.883 511.315 369.912 512.305V533.148C369.872 534.103 369.92 535.061 370.059 536.005C370.224 536.925 370.534 537.808 370.975 538.615C371.861 540.24 373.247 541.478 374.891 542.116C376.496 542.808 378.294 542.581 380.064 542.62H415.929L485.7 542.68L532.727 542.789L545.566 542.847H548.886H550.023H548.886H545.566L532.727 542.907L485.7 543.006L415.929 543.075H377.413C376.015 543.059 374.643 542.657 373.431 541.905C372.219 541.153 371.206 540.078 370.49 538.784C370.01 537.915 369.669 536.966 369.481 535.975C369.339 534.995 369.287 534.002 369.325 533.01V512.314C369.292 511.292 369.322 510.267 369.416 509.249C369.689 507.145 370.668 505.221 372.168 503.841C373.662 502.443 375.572 501.671 377.55 501.665L532.727 501.754H546.895H550.198C551.295 501.774 552.376 502.043 553.371 502.546C554.773 503.242 555.961 504.356 556.793 505.758C557.625 507.16 558.067 508.791 558.066 510.455C558.066 511.444 558.066 512.492 558.066 513.481C558.066 515.459 558.066 517.357 558.066 519.176C558.066 522.816 558.066 526.147 558.066 529.144C558.066 530.636 558.066 532.05 558.066 533.375C558.133 534.629 557.99 535.885 557.644 537.083C557.059 538.959 555.89 540.56 554.333 541.611C553.385 542.256 552.318 542.668 551.206 542.818C550.813 542.895 550.413 542.924 550.014 542.907Z" fill="#6E7191"/>
<path d="M169.424 599.948H125.056C120.92 599.948 117.555 595.203 117.555 589.349V463.133C117.555 457.279 120.92 452.533 125.185 452.533H169.542C173.569 452.533 176.879 457.279 176.879 463.133V589.379C176.925 595.203 173.569 599.948 169.424 599.948Z" fill="#CBCDDC"/>
<path d="M169.423 599.95C169.423 599.95 169.754 599.95 170.34 599.831C171.277 599.641 172.164 599.229 172.935 598.624C174.168 597.615 175.137 596.281 175.751 594.749C176.155 593.78 176.441 592.759 176.603 591.713C176.765 590.514 176.827 589.303 176.787 588.094C176.787 577.781 176.787 562.88 176.713 544.479C176.64 526.078 176.713 504.127 176.659 479.783C176.659 476.738 176.659 473.656 176.659 470.539V465.842C176.709 464.269 176.664 462.693 176.521 461.126C176.309 459.571 175.823 458.075 175.09 456.716C174.372 455.336 173.303 454.208 172.009 453.463C171.367 453.095 170.661 452.874 169.937 452.81C169.212 452.751 168.424 452.81 167.671 452.81H163.086H125.055C123.472 452.859 121.963 453.547 120.828 454.738C119.694 455.927 118.847 457.397 118.361 459.019C117.892 460.647 117.688 462.35 117.756 464.053V489.414C117.756 502.674 117.756 515.448 117.756 527.631C117.756 539.812 117.756 551.361 117.756 562.238C117.756 567.646 117.756 572.876 117.756 577.899V585.285C117.756 586.492 117.756 587.678 117.756 588.865C117.728 590.017 117.827 591.169 118.049 592.296C118.454 594.477 119.468 596.471 120.956 598.012C121.682 598.726 122.547 599.255 123.487 599.564C124.424 599.806 125.388 599.896 126.348 599.831H137.215H154.64L165.645 599.88H168.506H169.478H168.506H165.645L154.64 599.93H137.215H126.348C125.361 599.997 124.368 599.907 123.405 599.662C122.436 599.413 121.529 598.941 120.745 598.278C119.193 596.684 118.136 594.612 117.719 592.345C117.489 591.193 117.388 590.014 117.416 588.836C117.416 587.649 117.416 586.463 117.416 585.256C117.416 582.843 117.416 580.381 117.416 577.87C117.416 572.847 117.416 567.617 117.416 562.208C117.416 551.331 117.416 539.802 117.416 527.601C117.416 515.399 117.416 502.644 117.416 489.385C117.416 482.793 117.416 476.056 117.416 469.174V464.023C117.339 462.279 117.533 460.535 117.994 458.861C118.502 457.154 119.394 455.608 120.589 454.363C121.819 453.071 123.459 452.332 125.175 452.296H167.8C168.57 452.296 169.304 452.296 170.102 452.296C170.888 452.359 171.653 452.598 172.349 452.997C173.718 453.787 174.851 454.98 175.613 456.439C176.379 457.853 176.884 459.415 177.099 461.037C177.244 462.627 177.292 464.226 177.246 465.823V479.764C177.246 504.108 177.246 526.039 177.191 544.459C177.136 562.88 177.136 577.761 177.117 588.074C177.152 589.295 177.081 590.517 176.906 591.722C176.733 592.785 176.424 593.816 175.989 594.787C175.359 596.336 174.363 597.679 173.101 598.684C172.318 599.295 171.414 599.698 170.459 599.86C170.117 599.922 169.77 599.953 169.423 599.95Z" fill="#6E7191"/>
<path d="M361.759 501.517H178.649C174.293 501.517 170.763 505.324 170.763 510.02V534.888C170.763 539.584 174.293 543.392 178.649 543.392H361.759C366.115 543.392 369.646 539.584 369.646 534.888V510.02C369.646 505.324 366.115 501.517 361.759 501.517Z" fill="#CBCDDC"/>
<path d="M361.759 543.392C361.759 543.392 362.163 543.392 362.942 543.253C364.45 542.988 365.854 542.253 366.979 541.136C368.104 540.02 368.9 538.573 369.27 536.974C369.51 535.699 369.594 534.396 369.518 533.098C369.518 531.704 369.518 530.221 369.518 528.649C369.518 525.495 369.518 521.994 369.518 518.158C369.518 516.24 369.518 514.203 369.518 512.166C369.518 511.127 369.518 510.05 369.453 509.002C369.339 507.931 369.026 506.895 368.536 505.957C368.023 504.965 367.327 504.096 366.492 503.406C365.656 502.715 364.698 502.217 363.676 501.942C362.587 501.7 361.474 501.614 360.365 501.685H356.88H341.978L178.686 501.783C176.756 501.782 174.899 502.572 173.49 503.994C172.081 505.414 171.227 507.361 171.101 509.437C171.101 513.649 171.101 517.89 171.101 522.073C171.101 526.256 171.101 530.408 171.101 534.532C171.05 536.532 171.665 538.486 172.834 540.039C173.993 541.56 175.621 542.581 177.42 542.917C178.332 543.035 179.253 543.075 180.171 543.035H220.705L294.116 543.104L343.638 543.203L357.091 543.263H360.595H361.786H360.595H357.091L343.638 543.312L294.116 543.421L220.705 543.48H180.162C179.209 543.525 178.255 543.482 177.31 543.352C175.352 543.005 173.579 541.901 172.322 540.247C171.064 538.592 170.408 536.501 170.478 534.363C170.478 530.244 170.478 526.091 170.478 521.905C170.478 517.703 170.478 513.52 170.478 509.229C170.617 506.996 171.537 504.903 173.052 503.372C174.567 501.842 176.563 500.987 178.64 500.983L341.932 501.082H356.834H360.319C361.457 501.019 362.598 501.114 363.712 501.368C364.776 501.662 365.775 502.185 366.644 502.907C367.515 503.63 368.239 504.536 368.774 505.571C369.271 506.556 369.583 507.639 369.692 508.754C369.792 509.861 369.738 510.91 369.746 511.959C369.746 514.035 369.746 516.032 369.746 517.95C369.746 521.787 369.746 525.284 369.746 528.441C369.746 530.013 369.746 531.497 369.746 532.89C369.818 534.217 369.723 535.547 369.462 536.845C369.076 538.47 368.251 539.933 367.092 541.051C365.932 542.169 364.491 542.89 362.951 543.124C362.647 543.17 362.341 543.195 362.035 543.193L361.759 543.392Z" fill="#6E7191"/>
<path d="M370.269 391.525C370.434 391.525 370.563 417.085 370.563 448.607C370.563 480.129 370.434 505.689 370.269 505.689C370.104 505.689 369.985 480.139 369.985 448.607C369.985 417.076 370.113 391.525 370.269 391.525Z" fill="#6E7191"/>
<path d="M469.092 427.656C469.092 427.656 468.918 427.923 468.688 428.417C468.389 429.118 468.287 429.898 468.395 430.662C468.458 431.215 468.633 431.747 468.907 432.22C469.181 432.693 469.548 433.097 469.981 433.401C470.539 433.679 471.158 433.784 471.768 433.708C472.379 433.631 472.958 433.374 473.442 432.965C473.925 432.557 474.295 432.011 474.51 431.389C474.724 430.769 474.776 430.096 474.658 429.445C474.487 428.92 474.209 428.442 473.846 428.046C473.483 427.649 473.043 427.343 472.558 427.151C471.894 426.857 471.162 426.784 470.458 426.944C469.963 427.062 469.707 427.231 469.678 427.181C469.869 426.951 470.118 426.786 470.394 426.707C471.141 426.436 471.949 426.436 472.696 426.707C473.261 426.902 473.778 427.233 474.207 427.674C474.636 428.117 474.966 428.658 475.172 429.258C475.409 429.991 475.409 430.789 475.172 431.522C474.908 432.289 474.454 432.963 473.859 433.471C473.264 433.978 472.551 434.299 471.798 434.399C471.08 434.488 470.357 434.314 469.743 433.905C469.249 433.551 468.838 433.08 468.539 432.528C468.24 431.976 468.062 431.358 468.018 430.72C467.938 429.877 468.119 429.029 468.532 428.308C468.798 427.803 469.073 427.636 469.092 427.656Z" fill="#6E7191"/>
<path d="M486.654 412.765C486.654 412.874 485.48 412.893 483.682 413.446C481.339 414.145 479.2 415.472 477.462 417.306C475.725 419.139 474.448 421.418 473.75 423.928C473.201 425.906 473.145 427.122 473.045 427.111C472.988 426.818 472.988 426.516 473.045 426.222C473.082 425.406 473.199 424.598 473.393 423.809C474.005 421.167 475.286 418.761 477.09 416.856C478.895 414.952 481.156 413.625 483.618 413.022C484.353 412.834 485.102 412.724 485.856 412.696C486.124 412.663 486.395 412.686 486.654 412.765Z" fill="#6E7191"/>
<path d="M446.037 433.836C446.175 433.528 446.362 433.247 446.588 433.005C447.155 432.298 447.787 431.655 448.476 431.087C450.761 429.178 453.511 428.027 456.391 427.774C459.272 427.521 462.158 428.178 464.7 429.663C465.461 430.087 466.18 430.594 466.845 431.176C467.313 431.611 467.543 431.878 467.515 431.908C467.487 431.937 466.442 431.028 464.507 430.019C462.005 428.686 459.213 428.112 456.431 428.358C453.651 428.604 450.983 429.659 448.715 431.413C446.963 432.778 446.12 433.915 446.037 433.836Z" fill="#6E7191"/>
<path d="M473.338 444.187C473.274 444.187 472.815 443.703 472.183 442.743C471.295 441.494 470.705 440.027 470.468 438.473C470.366 437.674 470.438 436.86 470.679 436.097C470.919 435.333 471.321 434.64 471.852 434.073C472.77 433.232 473.522 433.252 473.512 433.312C473.503 433.37 472.842 433.558 472.146 434.389C471.718 434.939 471.401 435.579 471.214 436.269C471.028 436.958 470.976 437.681 471.064 438.393C471.307 439.856 471.811 441.252 472.55 442.506C472.886 443.023 473.152 443.59 473.338 444.187Z" fill="#6E7191"/>
</g>
<path d="M563.81 622.213L580.815 677.147L513.802 701.406C512.14 694.749 542.697 669.108 542.697 669.108L530.414 634.427L563.81 622.213Z" fill="#A0A3BD"/>
<g opacity="0.6">
<path opacity="0.6" d="M580.777 677.22L578.894 671.704L515.319 696.964C515.319 696.964 512.703 699.362 513.763 701.379L580.777 677.22Z" fill="white"/>
</g>
<path d="M538.578 652.241C539.773 652.155 540.928 651.732 541.926 651.014C543.065 650.363 544.127 649.568 545.092 648.644C545.66 648.102 546.197 647.523 546.701 646.91C547.004 646.561 547.259 646.166 547.459 645.74C547.6 645.43 547.636 645.078 547.562 644.743C547.488 644.409 547.308 644.113 547.054 643.906C546.81 643.732 546.532 643.62 546.242 643.578C545.952 643.537 545.657 643.567 545.38 643.665C544.953 643.818 544.549 644.03 544.176 644.301C543.519 644.711 542.898 645.183 542.319 645.711C541.356 646.632 540.531 647.708 539.873 648.898C538.773 650.929 538.643 652.368 538.773 652.396C538.904 652.424 539.388 651.127 540.579 649.35C541.286 648.302 542.112 647.354 543.038 646.529C543.585 646.048 544.167 645.615 544.777 645.231C545.418 644.78 546.02 644.555 546.308 644.808C546.596 645.062 546.439 644.964 546.308 645.217C546.158 645.53 545.968 645.819 545.745 646.077C545.292 646.667 544.807 647.226 544.294 647.756C543.414 648.662 542.46 649.479 541.442 650.196C540.449 650.815 539.493 651.497 538.578 652.241Z" fill="#263238"/>
<path d="M539.153 652.565C539.481 651.378 539.431 650.107 539.009 648.955C538.666 647.665 538.112 646.453 537.374 645.373C536.924 644.731 536.417 644.141 535.856 643.609C535.521 643.218 535.099 642.925 534.63 642.761C534.16 642.595 533.659 642.561 533.175 642.664C532.889 642.769 532.636 642.956 532.443 643.204C532.249 643.453 532.122 643.754 532.076 644.074C532.005 644.542 532.005 645.018 532.076 645.485C532.203 646.287 532.445 647.063 532.795 647.784C533.393 649.004 534.266 650.042 535.334 650.802C536.28 651.609 537.479 651.993 538.682 651.874C538.747 651.663 537.374 651.436 535.87 650.097C534.991 649.334 534.281 648.37 533.789 647.276C533.517 646.641 533.331 645.966 533.24 645.274C533.109 644.512 533.24 643.863 533.489 643.863C533.773 643.854 534.055 643.911 534.318 644.03C534.58 644.149 534.814 644.328 535.006 644.555C535.519 645.024 535.992 645.543 536.418 646.106C537.135 647.067 537.716 648.137 538.145 649.278C538.917 651.211 538.957 652.579 539.153 652.565Z" fill="#263238"/>
<path d="M429.115 634.906L432.176 692.139L361.539 693.14C361.854 686.258 398.166 671.985 398.166 671.985L396.322 634.906H429.115Z" fill="#A0A3BD"/>
<g opacity="0.6">
<path opacity="0.6" d="M432.177 692.198L431.902 686.373L364.234 689.504C364.234 689.504 361.108 690.914 361.5 693.199L432.177 692.198Z" fill="white"/>
</g>
<path d="M397.525 663.115C397.669 663.426 399.252 662.917 401.201 663.03C403.15 663.144 404.68 663.736 404.85 663.439C405.021 663.144 403.543 661.902 401.253 661.803C398.964 661.704 397.342 662.862 397.525 663.115Z" fill="#263238"/>
<path d="M399.081 654.568C400.245 654.866 401.46 654.842 402.613 654.497C403.882 654.246 405.12 653.838 406.303 653.284C406.998 652.959 407.67 652.582 408.317 652.156C408.71 651.932 409.068 651.642 409.376 651.296C409.608 651.055 409.75 650.731 409.774 650.385C409.799 650.039 409.703 649.695 409.507 649.42C409.324 649.174 409.09 648.975 408.826 648.841C408.56 648.706 408.27 648.639 407.976 648.644C407.535 648.646 407.094 648.712 406.669 648.841C405.919 649.039 405.189 649.308 404.484 649.646C403.306 650.203 402.216 650.955 401.253 651.874C399.631 653.439 399.095 654.766 399.213 654.836C399.331 654.906 400.155 653.835 401.829 652.536C402.793 651.776 403.844 651.151 404.955 650.675C405.613 650.395 406.291 650.174 406.983 650.013C407.728 649.801 408.291 649.787 408.565 650.125C408.631 650.252 408.644 650.295 408.487 650.52C408.26 650.772 408 650.986 407.716 651.154C407.114 651.56 406.495 651.932 405.857 652.269C404.768 652.853 403.629 653.326 402.457 653.679C401.313 653.886 400.185 654.183 399.081 654.568Z" fill="#263238"/>
<path d="M399.54 655.061C400.187 654.034 400.495 652.803 400.416 651.563C400.455 650.229 400.273 648.896 399.88 647.629C399.637 646.867 399.322 646.134 398.938 645.443C398.731 644.961 398.413 644.543 398.015 644.23C397.617 643.916 397.151 643.717 396.663 643.652C396.352 643.656 396.051 643.755 395.791 643.937C395.532 644.12 395.326 644.377 395.197 644.681C395.017 645.101 394.899 645.548 394.844 646.007C394.725 646.815 394.725 647.639 394.844 648.447C395.064 649.803 395.605 651.076 396.414 652.142C397.814 653.99 399.265 654.399 399.292 654.272C399.318 654.145 398.193 653.439 397.107 651.662C396.487 650.643 396.09 649.486 395.943 648.277C395.851 647.585 395.851 646.883 395.943 646.19C396.048 645.428 396.322 644.78 396.596 644.879C396.872 644.977 397.552 645.443 397.905 646.049C398.269 646.663 398.576 647.316 398.821 647.995C399.227 649.144 399.475 650.351 399.553 651.578C399.684 653.693 399.344 655.019 399.54 655.061Z" fill="#263238"/>
<path d="M409.926 404.041C409.926 404.041 382.364 548.704 382.364 553.64C382.364 558.576 392.999 665.511 392.999 665.511H433.406L424.16 549.706L456.952 452.742L453.682 404.041H409.926Z" fill="#211F54"/>
<path d="M450.358 428.864C451.013 433.687 532.232 659.488 532.232 659.488L572.351 644.214C571.972 644.214 526.052 511.742 526.052 511.742C526.052 511.742 524.583 441.094 520.686 406.041C518.234 383.973 499.792 370.967 499.792 370.967L446.29 401.459L450.358 428.864Z" fill="#211F54"/>
<path d="M386.484 267.755C386.224 269.165 410.435 358.476 410.435 358.476L412.242 390.671L408.788 406.042C408.788 406.042 436.938 409.709 458.011 410.725C479.085 411.74 500.898 374.404 500.898 374.404L490.152 276.669L452.216 229.321L437.658 234.033C437.658 234.033 429.325 264.722 405.073 252.959L401.803 254.977L386.484 267.755Z" fill="#0075FF"/>
<path d="M388.793 256.518L414.082 242.903L449.051 230.396C449.051 230.396 469.266 225.735 481.501 233.119C492.213 239.616 497.481 350.848 497.481 350.848L500.491 373.028L412.582 390.99L414.082 368.997C414.082 368.997 396.678 334.628 392.654 319.546C391.121 297.644 388.793 256.518 388.793 256.518Z" fill="#0075FF"/>
<path d="M489.029 266.029C488.956 266.089 488.877 266.138 488.793 266.176L488.108 266.538C487.508 266.854 486.631 267.272 485.536 267.766C479.805 270.324 473.797 272.093 467.656 273.03C466.479 273.207 465.523 273.327 464.857 273.382L464.098 273.44C464.009 273.46 463.918 273.467 463.827 273.46C463.913 273.431 464.001 273.41 464.091 273.399L464.845 273.278C465.503 273.187 466.463 273.032 467.625 272.828C470.674 272.294 473.695 271.591 476.677 270.724C479.652 269.84 482.584 268.791 485.459 267.578C486.561 267.113 487.451 266.723 488.065 266.442L488.774 266.13C488.856 266.086 488.941 266.053 489.029 266.029Z" fill="white"/>
<path d="M422.123 109.048C422.906 107.792 423.946 106.747 425.164 105.994C426.381 105.242 427.744 104.803 429.145 104.711C430.284 104.626 431.557 104.766 432.415 103.955C432.952 103.284 433.38 102.521 433.681 101.697C434.011 101.136 434.442 100.65 434.948 100.271C435.454 99.8921 436.026 99.6247 436.628 99.4873C437.232 99.35 437.854 99.3437 438.46 99.4695C439.066 99.5943 439.642 99.8502 440.154 100.219C440.588 100.679 441.09 101.057 441.639 101.34C444.015 102.143 445.67 97.2825 448.04 98.109C447.128 98.7031 446.407 99.5838 445.972 100.633C445.768 101.161 445.733 101.748 445.876 102.3C446.018 102.851 446.328 103.335 446.755 103.673C449.107 105.195 451.718 100.253 454.242 101.396C455.613 102.053 456.149 104.222 457.631 104.308C458.201 104.257 458.76 104.102 459.282 103.848C460.216 103.593 461.207 103.729 462.051 104.231C462.896 104.733 463.531 105.563 463.829 106.552C464.285 108.253 463.833 110.527 465.235 111.456C466.098 112.023 467.213 111.687 468.179 111.333C468.423 112.936 468.327 114.579 467.897 116.137C469.321 116.76 470.466 117.956 471.091 119.47C471.717 120.985 471.773 122.702 471.25 124.26C472.758 124.99 474.118 126.03 475.254 127.324C476.31 128.684 476.836 130.677 476.119 132.277C475.923 132.619 475.771 132.989 475.669 133.377C475.63 133.817 475.703 134.258 475.878 134.655C476.46 136.219 477.387 137.664 477.594 139.332C477.802 140.999 476.987 143.04 475.43 143.196C475.072 143.222 474.651 143.178 474.387 143.45C474.208 143.679 474.12 143.976 474.143 144.275C474.245 145.484 474.522 146.668 474.965 147.785C475.408 148.911 475.437 150.177 475.046 151.327C474.566 152.421 473.109 153.049 472.281 152.251C473.03 154.007 473.774 155.77 474.523 157.527C474.965 158.574 475.38 159.861 474.792 160.811C474.004 162.051 472.108 161.562 471.16 160.453C470.213 159.344 469.753 157.826 468.801 156.739C468.364 156.341 467.968 155.893 467.619 155.405C467.373 154.997 467.234 154.474 466.837 154.237C466.043 153.765 465.156 155.004 465.415 155.945C465.674 156.884 466.497 157.476 467.179 158.095C467.862 158.714 468.506 159.709 468.184 160.632C468.036 161.069 467.678 161.432 467.557 161.86C467.073 163.419 469.212 164.4 469.701 165.947C470.065 167.085 469.452 168.303 468.81 169.296C468.026 170.505 466.324 171.692 465.505 170.512C465.3 170.053 465.118 169.58 464.961 169.099C464.626 168.619 464.186 168.234 463.681 167.977C462.502 167.187 461.565 166.039 460.988 164.677C462.371 165.967 463.906 167.732 463.392 169.621C463.097 170.385 462.698 171.097 462.209 171.736C461.378 173.077 460.989 174.706 460.172 176.062C459.357 177.418 457.826 178.523 456.408 178.014C456.764 178.742 456.881 179.577 456.74 180.386C456.6 181.195 456.21 181.928 455.634 182.468C455.057 183.007 454.328 183.321 453.566 183.356C452.803 183.393 452.052 183.151 451.434 182.668C451.133 182.364 450.776 182.133 450.386 181.986C449.939 181.949 449.49 182.05 449.092 182.273C447.825 182.766 446.458 182.872 445.14 182.58C443.821 182.289 442.602 181.61 441.618 180.622L442.854 179.858C440.201 180.005 437.426 180.13 435.025 178.925C432.623 177.72 430.671 174.852 431.368 172.088C431.664 170.886 432.406 169.574 431.794 168.523C431.371 167.793 430.49 167.593 429.712 167.462L419.861 165.752C418.268 165.476 416.581 165.161 415.363 164.021C414.145 162.879 413.674 160.63 414.832 159.423C413.855 158.01 412.522 156.929 410.993 156.308C409.287 155.607 407.41 155.513 405.689 154.903C403.969 154.294 402.232 152.88 402.022 150.953C401.813 149.028 404.025 146.995 405.501 148.193C404.765 145.333 399.926 146.086 399.031 143.282C398.297 141 400.887 139.237 402.01 137.156C401.581 136.427 400.722 136.028 400.271 135.285C399.323 133.726 400.668 131.721 402.088 130.632C403.507 129.543 405.234 128.377 405.303 126.513C405.373 124.65 403.575 122.837 404.207 121.052C404.398 120.566 404.752 120.175 405.199 119.958C405.646 119.741 406.153 119.713 406.617 119.881C407.287 116.282 413.537 117.669 414.726 114.228C414.835 113.961 414.857 113.662 414.791 113.379C414.709 113.142 414.568 112.933 414.384 112.777C413.549 111.987 412.422 111.699 411.455 111.155C410.487 110.612 409.549 109.54 409.756 108.374C409.962 107.209 411.889 106.858 412.064 108.033C412.311 107.736 412.616 107.506 412.959 107.356C413.3 107.206 413.67 107.142 414.038 107.168C414.407 107.195 414.765 107.311 415.085 107.509C415.406 107.706 415.68 107.98 415.889 108.308C416.472 107.183 417.917 106.913 419.069 107.36C420.16 107.911 421.116 108.731 421.859 109.754" fill="#211F54"/>
<path d="M443.091 143.213C441.219 138.633 437.2 135.478 433.013 133.311C431.305 132.288 429.389 131.736 427.435 131.707C425.485 131.807 423.479 132.994 422.86 134.991L423.784 138.356C424.419 143.896 429.194 147.61 432.025 152.279C433.251 154.311 434.439 156.825 436.589 157.318C437.769 157.521 438.975 157.24 439.971 156.531C444.002 153.995 444.965 147.831 443.091 143.213Z" fill="#4B3CFB"/>
<path d="M448.355 168.302C449.323 165.897 449.476 163.202 448.788 160.686C448.099 158.172 446.613 155.998 444.588 154.545C445.922 151.589 444.467 147.883 442.075 145.848C439.683 143.811 436.597 143.054 433.621 142.357C430.632 135.364 421.933 132.03 415.513 135.407C410.841 130.657 403.138 131.574 397.506 134.9C396.188 135.82 394.755 136.533 393.25 137.017C392.109 137.187 390.958 137.274 389.806 137.277C383.488 137.852 378.374 143.949 377.256 150.666C377.146 151.754 376.903 152.822 376.537 153.842C375.97 155.134 374.894 156.076 374.047 157.167C373.13 158.366 372.464 159.762 372.093 161.264C371.722 162.764 371.656 164.334 371.899 165.865C372.321 168.453 373.644 170.996 373.105 173.565C372.842 174.848 372.126 176.014 371.985 177.32C371.574 181.112 375.941 183.874 376.019 187.676C376.068 188.435 375.864 189.21 375.821 189.976C375.737 191.586 376.199 193.176 377.121 194.447C377.827 195.414 378.811 196.223 379.121 197.403C379.247 198.327 379.266 199.264 379.175 200.193C379.21 202.475 385.303 209.852 387.303 210.622L439.716 198.652C441.594 197.701 443.153 196.143 444.175 194.193C445.196 192.245 445.629 190.001 445.415 187.775C445.246 187.052 445.267 186.293 445.479 185.584C445.799 185.052 446.216 184.596 446.706 184.243C449.669 181.491 449.057 176.405 447.857 172.383C447.66 171.831 447.55 171.247 447.534 170.656C447.662 169.821 447.941 169.022 448.355 168.302Z" fill="#211F54"/>
<path d="M433.386 171.958C431.493 161.935 423.332 151.852 413.136 149.163C406.67 147.473 402.175 148.528 399.047 148.87C394.679 149.451 390.578 151.449 387.286 154.6C384.553 156.024 376.126 168.973 377.901 180.437C379.87 193.157 382.744 208.605 386.139 217.616C392.964 235.727 406.851 234.772 406.851 234.772L412.014 266.365L443.971 233.869L433.386 171.958Z" fill="#FFBF9D"/>
<path d="M413.219 193.498C413.293 194.213 413.623 194.869 414.137 195.326C414.652 195.783 415.312 196.006 415.977 195.948C416.303 195.933 416.624 195.849 416.92 195.699C417.216 195.549 417.48 195.336 417.699 195.074C417.917 194.812 418.086 194.506 418.193 194.173C418.3 193.84 418.344 193.488 418.323 193.136C418.251 192.42 417.922 191.764 417.406 191.305C416.892 190.848 416.23 190.626 415.566 190.686C415.239 190.7 414.918 190.785 414.623 190.935C414.327 191.085 414.061 191.297 413.843 191.559C413.624 191.821 413.457 192.128 413.349 192.461C413.242 192.793 413.198 193.147 413.219 193.498Z" fill="#211F54"/>
<path d="M387.27 195.454C387.343 196.17 387.674 196.827 388.19 197.284C388.707 197.742 389.368 197.964 390.035 197.903C390.361 197.887 390.681 197.802 390.976 197.652C391.271 197.502 391.536 197.29 391.754 197.028C391.973 196.766 392.14 196.46 392.248 196.128C392.355 195.795 392.401 195.443 392.381 195.092C392.309 194.376 391.98 193.719 391.464 193.261C390.948 192.804 390.288 192.582 389.622 192.641C389.295 192.655 388.974 192.739 388.677 192.889C388.381 193.039 388.115 193.251 387.896 193.513C387.676 193.775 387.508 194.082 387.401 194.415C387.293 194.748 387.248 195.101 387.27 195.454Z" fill="#211F54"/>
<path d="M381.783 186.974C382.135 187.289 383.891 185.505 386.609 185.156C389.326 184.805 391.51 186.027 391.767 185.627C391.896 185.449 391.507 184.885 390.555 184.272C389.272 183.54 387.81 183.255 386.37 183.453C384.95 183.635 383.618 184.298 382.567 185.346C381.842 186.155 381.611 186.834 381.783 186.974Z" fill="#211F54"/>
<path d="M409.662 185.184C410.048 185.459 411.624 183.513 414.306 182.838C416.989 182.164 419.271 183.157 419.491 182.729C419.598 182.538 419.153 181.993 418.147 181.513C416.794 180.927 415.306 180.807 413.887 181.172C412.487 181.503 411.222 182.312 410.279 183.477C409.624 184.357 409.478 185.06 409.662 185.184Z" fill="#211F54"/>
<path d="M401.467 207.45C401.456 207.284 399.727 207.186 396.928 207.161C396.223 207.176 395.513 207.115 395.368 206.616C395.222 206.117 395.341 205.24 395.586 204.315C396.041 202.408 396.514 200.438 397.011 198.313C398.966 189.79 400.292 182.791 399.976 182.708C399.659 182.625 397.809 189.481 395.855 198.02C395.384 200.119 394.941 202.125 394.515 204.046C394.347 204.934 394.004 205.965 394.484 207.048C394.616 207.299 394.8 207.515 395.021 207.68C395.242 207.844 395.495 207.952 395.761 207.995C396.159 208.063 396.562 208.07 396.962 208.019C399.755 207.838 401.478 207.617 401.467 207.45Z" fill="#211F54"/>
<path d="M403.452 214.414C403.891 213.639 404.507 212.997 405.24 212.552C405.974 212.106 406.802 211.87 407.645 211.867C408.255 211.847 408.863 211.96 409.432 212.2C410.001 212.439 410.519 212.801 410.956 213.262C411.376 213.706 411.659 214.279 411.768 214.903C411.877 215.526 411.805 216.171 411.563 216.749C410.935 217.962 409.441 218.432 408.125 218.189C406.778 217.865 405.504 217.253 404.378 216.393C404.043 216.196 403.743 215.934 403.495 215.622C403.377 215.472 403.303 215.287 403.283 215.092C403.263 214.897 403.297 214.7 403.381 214.526" fill="#FF9A6C"/>
<path d="M409.745 208.449C409.302 208.482 409.652 211.677 407.362 214.279C405.073 216.88 401.885 216.938 401.914 217.393C401.927 217.597 402.69 217.92 404.058 217.787C405.802 217.587 407.424 216.731 408.641 215.37C409.806 214.061 410.453 212.313 410.444 210.497C410.37 209.148 409.948 208.404 409.745 208.449Z" fill="#211F54"/>
<path d="M406.286 173.84C406.715 174.57 409.318 173.536 412.557 173.178C415.797 172.819 418.544 173.13 418.816 172.325C418.932 171.935 418.333 171.303 417.142 170.791C415.573 170.191 413.899 169.985 412.246 170.185C410.592 170.386 409.003 170.992 407.598 171.952C406.546 172.732 406.095 173.498 406.286 173.84Z" fill="#211F54"/>
<path d="M381.349 174.198C381.905 174.804 383.715 173.868 385.975 173.537C388.235 173.207 390.207 173.446 390.574 172.688C390.727 172.319 390.354 171.692 389.444 171.167C388.239 170.53 386.879 170.315 385.555 170.553C384.227 170.756 382.988 171.394 382.009 172.382C381.292 173.205 381.106 173.928 381.349 174.198Z" fill="#211F54"/>
<path d="M406.863 234.756C415.131 232.827 422.739 228.463 428.844 222.149C428.844 222.149 425.483 236.97 407.636 239.587L406.863 234.756Z" fill="#894943"/>
<path d="M434.42 190.506C434.116 189.106 434.909 185.428 436.174 184.891C439.478 183.455 445.718 182.2 447.794 191.57C450.638 204.377 438.13 204.81 438.036 204.451C437.942 204.093 435.445 195.326 434.42 190.506Z" fill="#FFBF9D"/>
<path d="M440.232 198.91C440.278 198.853 440.472 199.006 440.866 199.09C441.407 199.192 441.963 199.063 442.418 198.729C443.563 197.882 444.143 195.485 443.688 193.167C443.474 192.059 443.033 191.017 442.396 190.119C442.196 189.747 441.916 189.435 441.578 189.206C441.241 188.979 440.857 188.842 440.461 188.81C440.208 188.804 439.961 188.892 439.762 189.062C439.564 189.231 439.428 189.47 439.376 189.737C439.296 190.132 439.418 190.373 439.37 190.408C439.324 190.441 439.072 190.263 439.047 189.671C439.04 189.335 439.141 189.007 439.333 188.743C439.601 188.394 439.984 188.171 440.402 188.122C440.913 188.099 441.421 188.219 441.878 188.468C442.334 188.718 442.723 189.089 443.008 189.547C443.759 190.527 444.276 191.691 444.513 192.937C445.015 195.533 444.324 198.282 442.726 199.247C442.429 199.427 442.099 199.534 441.758 199.559C441.417 199.585 441.077 199.528 440.759 199.395C440.322 199.2 440.199 198.942 440.232 198.91Z" fill="#894943"/>
<path d="M375.298 181.258C377.35 179.032 378.412 176.455 377.618 173.468C379.32 173.584 380.465 170.97 381.074 169.248C381.682 167.527 382.661 166.494 382.193 164.724C382.079 164.379 382.054 164.007 382.122 163.648C382.257 163.098 382.773 162.792 383.242 162.505C384.415 161.745 385.393 160.68 386.086 159.408C386.779 158.136 387.166 156.697 387.212 155.223C390.026 155.782 392.925 155.582 395.65 154.64C396.478 155.451 397.484 156.022 398.572 156.3C399.66 156.579 400.797 156.555 401.874 156.232C402.952 155.909 403.937 155.297 404.735 154.452C405.534 153.608 406.122 152.56 406.444 151.405C407.015 152.084 407.716 152.623 408.497 152.985C409.278 153.348 410.123 153.527 410.973 153.508C412.672 153.458 414.355 153.142 415.969 152.568C416.044 154.38 416.719 156.103 417.871 157.426C419.023 158.748 420.576 159.582 422.249 159.778C422.476 159.755 422.704 159.781 422.921 159.856C423.138 159.929 423.34 160.049 423.513 160.208C423.724 160.665 423.758 161.194 423.608 161.678C423.542 162.472 423.625 163.272 423.851 164.03C424.078 164.789 424.444 165.491 424.926 166.094C425.41 166.697 426.001 167.188 426.664 167.541C427.328 167.892 428.05 168.096 428.787 168.14C428.428 168.686 428.188 169.312 428.086 169.971C427.983 170.631 428.02 171.307 428.194 171.949C428.368 172.591 428.674 173.182 429.091 173.678C429.507 174.174 430.022 174.562 430.598 174.813C431.096 174.988 431.73 175.184 431.781 175.744C431.782 175.958 431.732 176.168 431.637 176.356C431.028 177.848 430.426 179.455 430.671 181.066C430.917 182.677 432.287 184.204 433.763 183.878C433.421 184.317 433.163 184.825 433.007 185.374C432.85 185.922 432.799 186.499 432.854 187.069C433.075 188.187 434.396 189.063 435.244 188.412C435.621 188.14 441.27 185.399 441.454 184.96C443.756 179.188 438.359 174.805 436.711 168.777C434.948 162.749 431.912 157.243 427.842 152.693C426.209 150.729 424.342 149.005 422.291 147.567C419.869 146.076 417.299 144.883 414.629 144.011C411.193 142.746 407.665 141.49 404.035 141.489C397.267 141.458 391.132 145.645 385.787 150.122C383.694 151.759 381.817 153.693 380.206 155.873C378.454 158.615 377.17 161.673 376.413 164.901C375.165 169.511 374.348 174.347 374.925 179.109" fill="#211F54"/>
<path d="M372.002 177.356C372.041 176.824 372.156 176.3 372.346 175.807C372.506 175.316 372.757 174.733 372.937 174.011C373.157 173.179 373.209 172.304 373.087 171.449C372.929 170.375 372.686 169.319 372.361 168.29C371.962 167.052 371.718 165.761 371.639 164.454C371.587 162.94 371.826 161.432 372.339 160.021C372.618 159.254 372.978 158.524 373.413 157.847C373.883 157.144 374.405 156.483 374.973 155.871C375.56 155.248 376.05 154.527 376.424 153.736C376.735 152.872 376.939 151.968 377.034 151.048C377.666 146.887 379.662 143.108 382.657 140.397C383.464 139.672 384.342 139.044 385.276 138.525C386.242 138.001 387.266 137.611 388.322 137.366C388.86 137.244 389.404 137.158 389.951 137.106C390.507 137.064 391.054 137.023 391.595 136.982C392.696 136.966 393.782 136.701 394.78 136.201C395.8 135.705 396.752 135.032 397.788 134.451C398.827 133.863 399.91 133.369 401.025 132.973C402.157 132.567 403.319 132.266 404.499 132.072C405.703 131.885 406.923 131.826 408.139 131.897C410.651 132.018 413.064 132.99 415.035 134.674L415.613 135.193L415.406 135.164C418.73 133.582 422.491 133.438 425.91 134.762C429.33 136.086 432.147 138.776 433.779 142.276L433.658 142.172C435.242 142.51 436.805 142.957 438.336 143.51C439.832 144.043 441.224 144.871 442.442 145.948C443.601 147.026 444.464 148.425 444.937 149.995C445.41 151.496 445.336 153.136 444.726 154.579L444.669 154.371C446.646 155.759 448.111 157.85 448.81 160.279C449.484 162.441 449.527 164.775 448.933 166.964C448.792 167.464 448.618 167.954 448.413 168.427C448.21 168.892 447.991 169.327 447.837 169.78C447.682 170.212 447.63 170.68 447.685 171.139C447.753 171.59 447.859 172.034 448.003 172.464C448.48 174.055 448.787 175.701 448.915 177.367C449.03 178.713 448.901 180.071 448.532 181.364C448.252 182.316 447.772 183.186 447.129 183.906C446.609 184.494 446.099 184.799 445.85 185.106C445.718 185.26 445.598 185.427 445.494 185.605C445.565 185.408 445.674 185.229 445.813 185.079C446.06 184.748 446.562 184.421 447.061 183.835C447.679 183.117 448.141 182.257 448.409 181.32C448.751 180.042 448.863 178.705 448.739 177.38C448.602 175.73 448.286 174.104 447.796 172.533C447.651 172.089 447.538 171.634 447.461 171.172C447.403 170.674 447.458 170.168 447.62 169.698C447.791 169.226 447.986 168.764 448.201 168.313C448.398 167.851 448.564 167.373 448.694 166.883C449.262 164.748 449.212 162.478 448.547 160.376C447.857 158.019 446.428 155.994 444.504 154.65L444.386 154.575L444.448 154.441C445.029 153.061 445.094 151.493 444.63 150.063C444.171 148.558 443.339 147.218 442.225 146.187C441.033 145.144 439.678 144.344 438.222 143.823C436.701 143.284 435.151 142.844 433.581 142.505L433.496 142.511L433.491 142.42C431.882 139.034 429.134 136.439 425.808 135.167C422.482 133.894 418.831 134.04 415.602 135.575L415.493 135.629L415.395 135.546L414.84 135.039C412.924 133.411 410.584 132.472 408.147 132.353C406.957 132.281 405.764 132.336 404.584 132.515C403.422 132.706 402.276 133.001 401.159 133.397C400.064 133.788 399 134.274 397.976 134.848C396.959 135.405 395.994 136.087 394.946 136.599C394.428 136.863 393.885 137.064 393.326 137.201C392.77 137.324 392.205 137.394 391.637 137.413C391.083 137.454 390.539 137.45 389.997 137.491C389.464 137.542 388.934 137.628 388.411 137.748C387.384 137.988 386.388 138.362 385.446 138.862C384.535 139.37 383.678 139.981 382.887 140.685C379.942 143.336 377.973 147.037 377.334 151.117C377.235 152.065 377.02 152.996 376.695 153.883C376.303 154.699 375.793 155.441 375.185 156.084C374.623 156.683 374.107 157.33 373.644 158.02C373.213 158.679 372.856 159.391 372.581 160.141C372.07 161.515 371.826 162.987 371.865 164.466C371.936 165.746 372.166 167.009 372.546 168.222C372.868 169.265 373.105 170.335 373.256 171.42C373.368 172.299 373.301 173.192 373.058 174.04C372.844 174.764 372.585 175.347 372.418 175.824C372.28 176.186 372.167 176.558 372.08 176.939C372.057 177.222 372.009 177.355 372.002 177.356Z" fill="#4A4566"/>
<path d="M409.332 133.969C409.332 133.969 408.979 133.851 408.331 133.686C407.426 133.461 406.491 133.403 405.566 133.515C404.207 133.672 402.912 134.216 401.813 135.092C400.467 136.185 399.477 137.71 398.987 139.447C398.841 139.967 398.749 140.503 398.71 141.044C398.676 141.282 398.691 141.526 398.755 141.756C398.819 141.987 398.93 142.2 399.079 142.38L399.462 142.739L398.952 142.709C397.622 142.647 396.323 143.149 395.335 144.109C394.554 144.864 394.023 145.871 393.819 146.979C393.68 147.715 393.675 148.473 393.801 149.213C393.868 149.477 393.924 149.744 393.966 150.015C393.928 149.955 393.895 149.891 393.869 149.824C393.795 149.635 393.733 149.441 393.683 149.244C393.508 148.5 393.477 147.725 393.592 146.967C393.776 145.787 394.314 144.706 395.122 143.889C396.156 142.859 397.524 142.313 398.93 142.368L398.803 142.705C398.612 142.489 398.468 142.23 398.381 141.947C398.294 141.664 398.267 141.363 398.301 141.067C398.343 140.495 398.441 139.929 398.594 139.378C399.106 137.558 400.15 135.964 401.569 134.836C402.538 134.084 403.652 133.578 404.829 133.358C406.005 133.137 407.212 133.207 408.359 133.563C408.606 133.642 408.848 133.738 409.085 133.85C409.257 133.906 409.338 133.953 409.332 133.969Z" fill="#4A4566"/>
<path d="M431.779 143.921C431.703 144.126 431.596 144.317 431.463 144.485C431.131 144.976 430.751 145.426 430.327 145.827C429.691 146.446 428.938 146.907 428.12 147.182C427.076 147.537 425.945 147.453 424.955 146.948L425.21 146.845C425.138 147.041 425.052 147.246 424.974 147.456C424.895 147.668 424.774 147.86 424.673 148.058C424.051 149.185 423.174 150.126 422.125 150.794C421.282 151.347 420.346 151.715 419.37 151.877C418.717 151.982 418.053 151.983 417.401 151.881C417.151 151.855 416.908 151.786 416.681 151.676C417.556 151.769 418.44 151.744 419.31 151.599C420.24 151.404 421.127 151.026 421.929 150.481C422.913 149.828 423.738 148.93 424.336 147.862C424.436 147.665 424.537 147.482 424.624 147.285C424.71 147.088 424.776 146.901 424.848 146.712L424.926 146.508L425.102 146.602C426.009 147.055 427.04 147.134 427.998 146.825C428.784 146.584 429.515 146.169 430.144 145.605C431.248 144.661 431.727 143.879 431.779 143.921Z" fill="#4A4566"/>
<path d="M440.6 154.251C440.6 154.251 440.605 154.334 440.617 154.501C440.605 154.733 440.56 154.963 440.483 155.181C440.176 155.995 439.596 156.655 438.859 157.032C437.756 157.542 436.54 157.697 435.357 157.479C434.702 157.392 434.026 157.313 433.309 157.146C432.535 157.006 431.832 156.576 431.323 155.933L431.204 155.743L431.503 155.767C430.644 156.983 429.617 158.048 428.459 158.928C427.497 159.65 426.366 160.065 425.196 160.126C424.412 160.178 423.628 160.006 422.925 159.627C422.733 159.529 422.554 159.404 422.392 159.256C422.28 159.158 422.226 159.101 422.233 159.092C422.24 159.085 422.491 159.263 422.965 159.487C423.661 159.797 424.415 159.923 425.164 159.855C426.277 159.751 427.344 159.328 428.256 158.631C429.369 157.752 430.36 156.706 431.197 155.523L431.353 155.313L431.503 155.546L431.597 155.699C432.058 156.265 432.686 156.643 433.376 156.768C434.036 156.92 434.704 157.035 435.375 157.112C436.493 157.34 437.648 157.227 438.709 156.784C439.407 156.456 439.976 155.874 440.319 155.14C440.44 154.855 440.534 154.557 440.6 154.251Z" fill="#4A4566"/>
<path d="M443.59 105.29C443.59 105.29 443.389 105.351 443.048 105.537C442.565 105.824 442.17 106.259 441.915 106.786C441.516 107.61 441.385 108.552 441.544 109.464C441.782 110.651 442.182 111.794 442.732 112.856L442.821 113.046L442.625 113.061C441.142 113.381 439.797 114.216 438.795 115.436C438.227 116.11 437.814 116.92 437.589 117.797C437.364 118.675 437.333 119.598 437.499 120.491C437.635 121.308 437.945 122.08 438.403 122.747C438.862 123.414 439.457 123.958 440.143 124.335L440.61 124.574L440.102 124.697C439.259 124.911 438.467 125.309 437.775 125.869C437.082 126.428 436.503 127.136 436.076 127.948C435.393 129.257 435.149 130.782 435.388 132.264C435.545 133.24 435.886 134.17 436.392 134.997C436.754 135.579 437.012 135.85 436.985 135.866C436.957 135.884 436.911 135.811 436.789 135.683C436.607 135.498 436.443 135.294 436.298 135.073C435.588 134.031 435.168 132.794 435.084 131.505C435.001 130.217 435.258 128.929 435.825 127.79C436.269 126.924 436.877 126.167 437.61 125.568C438.343 124.971 439.183 124.544 440.078 124.317L440.038 124.678C439.299 124.277 438.657 123.696 438.163 122.982C437.668 122.266 437.333 121.438 437.186 120.56C436.994 119.588 437.033 118.58 437.299 117.628C437.552 116.726 437.979 115.891 438.553 115.18C439.612 113.907 441.03 113.045 442.589 112.729L442.477 112.966C441.92 111.875 441.526 110.698 441.311 109.475C441.166 108.506 441.331 107.513 441.778 106.66C442.06 106.112 442.498 105.677 443.026 105.416C443.161 105.346 443.306 105.296 443.454 105.269C443.5 105.269 443.546 105.275 443.59 105.29Z" fill="#4A4566"/>
<path d="M470.753 127.83C470.753 127.83 470.701 127.903 470.587 128.003C470.419 128.162 470.242 128.309 470.058 128.447C469.357 128.956 468.591 129.353 467.782 129.623C466.543 130.051 465.236 130.201 463.941 130.065C462.275 129.915 460.679 129.28 459.323 128.228L459.586 128.14C459.246 129.328 458.665 130.418 457.885 131.333C457.105 132.249 456.145 132.964 455.076 133.43C453.92 133.899 452.656 133.966 451.462 133.62C450.269 133.275 449.207 132.534 448.426 131.501L448.73 131.41C448.619 132.331 448.286 133.204 447.764 133.942C447.289 134.594 446.714 135.152 446.063 135.594C444.982 136.292 443.777 136.739 442.526 136.904C441.722 137.024 440.911 137.085 440.101 137.086C439.812 137.102 439.523 137.09 439.237 137.052C439.523 137.004 439.812 136.983 440.101 136.987C440.905 136.942 441.704 136.849 442.498 136.707C443.721 136.522 444.894 136.063 445.943 135.359C446.602 134.93 447.166 134.349 447.595 133.659C448.024 132.969 448.306 132.186 448.424 131.365L448.471 130.904L448.728 131.273C449.467 132.238 450.466 132.932 451.588 133.257C452.709 133.582 453.896 133.522 454.984 133.086C456.001 132.64 456.915 131.958 457.66 131.088C458.405 130.219 458.965 129.183 459.298 128.055L459.374 127.812L459.566 127.958C460.869 128.984 462.402 129.615 464.008 129.786C465.266 129.933 466.54 129.813 467.756 129.435C468.825 129.069 469.836 128.528 470.753 127.83Z" fill="#4A4566"/>
<path d="M462.276 149.7C462.276 149.7 462.283 149.799 462.187 149.966C462.037 150.191 461.826 150.361 461.583 150.453C460.703 150.766 459.763 150.837 458.849 150.66C457.487 150.423 456.227 149.733 455.246 148.684C454.044 147.382 453.34 145.637 453.277 143.8L453.274 143.754L453.581 143.906C452.261 145.043 450.642 145.698 448.956 145.778C447.595 145.848 446.237 145.58 444.985 144.996C444.147 144.608 443.361 144.096 442.655 143.474C442.388 143.273 442.147 143.034 441.938 142.766C442.909 143.566 443.965 144.238 445.084 144.768C446.308 145.297 447.625 145.528 448.941 145.444C450.552 145.334 452.089 144.686 453.341 143.589L453.621 143.34L453.651 143.779C453.713 145.516 454.369 147.167 455.49 148.415C456.415 149.429 457.606 150.112 458.902 150.373C459.774 150.573 460.675 150.557 461.54 150.327C461.85 150.226 462.113 150.001 462.276 149.7Z" fill="#4A4566"/>
<path d="M417.673 112.201C417.543 113.568 417.647 114.949 417.98 116.275C418.39 117.864 419.204 119.297 420.33 120.414C421.456 121.53 422.848 122.286 424.35 122.595C425.299 122.802 426.273 122.833 427.23 122.683L427.463 122.665L427.479 122.907C427.378 124.341 427.53 125.78 427.923 127.153C428.242 128.248 428.705 129.288 429.296 130.241C429.516 130.602 429.76 130.944 430.027 131.266C430.115 131.383 430.227 131.476 430.354 131.54C430.479 131.604 430.617 131.638 430.757 131.638C430.845 131.63 430.931 131.602 431.007 131.554C431.083 131.505 431.149 131.439 431.198 131.361C431.268 131.25 431.263 131.166 431.278 131.172C431.292 131.179 431.283 131.256 431.257 131.394C431.209 131.492 431.141 131.577 431.058 131.641C430.975 131.705 430.88 131.748 430.779 131.766C430.614 131.788 430.448 131.766 430.292 131.704C430.138 131.641 429.999 131.539 429.888 131.407C429.604 131.09 429.345 130.747 429.115 130.383C428.479 129.428 427.98 128.374 427.633 127.259C427.205 125.845 427.034 124.356 427.13 122.873L427.335 123.078C426.333 123.247 425.313 123.221 424.32 123.001C422.757 122.683 421.31 121.891 420.149 120.717C418.988 119.543 418.162 118.037 417.767 116.375C417.529 115.388 417.446 114.364 417.522 113.347C417.547 113.071 417.588 112.795 417.645 112.523C417.637 112.296 417.659 112.202 417.673 112.201Z" fill="#4A4566"/>
<path d="M445.389 205.344C445.443 206.183 445.264 207.02 444.875 207.75C444.487 208.479 443.907 209.068 443.209 209.443C442.51 209.817 441.724 209.96 440.95 209.853C440.177 209.746 439.45 209.393 438.861 208.841C438.274 208.289 437.85 207.56 437.646 206.749C437.441 205.937 437.464 205.078 437.712 204.282C437.959 203.484 438.422 202.784 439.038 202.269C439.655 201.755 440.4 201.448 441.178 201.39C441.695 201.351 442.214 201.422 442.707 201.599C443.198 201.778 443.653 202.058 444.044 202.426C444.436 202.793 444.756 203.239 444.986 203.74C445.217 204.241 445.354 204.786 445.389 205.344Z" fill="#4B3CFB"/>
<path d="M475.372 318.664C475.31 318.692 475.245 318.709 475.178 318.714L474.61 318.829L472.398 319.217C470.479 319.546 467.703 319.997 464.266 320.541C457.392 321.615 447.875 324.063 437.338 325.349C426.8 326.634 417.244 326.484 410.32 327.113C406.861 327.416 404.057 327.643 402.119 327.781L399.886 327.95L399.308 327.993C399.243 328.009 399.177 328.014 399.111 328.008C399.176 327.994 399.242 327.989 399.308 327.993L399.886 327.95L402.115 327.725L410.309 326.936C417.222 326.259 426.775 326.352 437.307 325.066C447.837 323.782 457.356 321.374 464.236 320.372L472.388 319.167L474.606 318.851L475.183 318.807L475.372 318.664Z" fill="white"/>
<g opacity="0.3">
<path opacity="0.3" d="M462.892 262.728L473.709 308.734L479.033 309.707L481.571 329.411L434.61 405.006H455.998L460.629 391.467L499.206 363.706V357.181L484.41 299.877L477.346 303.827L462.892 262.728Z" fill="black"/>
</g>
<path d="M388.872 256.491C380.109 264.975 376.112 273.963 371.825 284.259C364.063 303.482 362.184 310.717 362.184 310.717L395.459 327.912L393.33 314.98L388.872 256.491Z" fill="#0075FF"/>
<path d="M357.906 259.154L348.459 319.741L371.971 334.136L376.18 258.787L357.906 259.154Z" fill="#FFBF9D"/>
<path d="M348.459 319.741C348.459 319.741 344.497 342.124 361.352 349.618C373.871 355.191 387.93 343.01 391.528 325.683L373.152 316.477L348.459 319.741Z" fill="#FFBF9D"/>
<path d="M373.027 311.868C373.26 313.087 373.374 314.327 373.367 315.571C373.572 321.576 373.02 327.584 371.726 333.429C371.508 334.652 371.171 335.847 370.718 336.993C370.844 335.759 371.039 334.535 371.304 333.327C371.703 331.078 372.184 327.969 372.476 324.481C372.769 320.993 372.898 317.859 372.909 315.635C372.866 314.377 372.905 313.119 373.027 311.868Z" fill="#FF9A6C"/>
<path d="M376.168 259.142C376.286 258.662 381.408 238.353 381.408 238.353L378.536 218.435C378.536 218.435 377.997 212.545 375.02 213.683C372.043 214.82 373.004 221.265 373.004 221.265L362.525 233.361L359.829 231.54C358.035 233.61 356.973 236.294 356.828 239.123C356.828 243.319 357.859 259.18 357.859 259.18" fill="#FFBF9D"/>
<path d="M357.905 259.142C357.865 258.972 357.842 258.798 357.835 258.624L357.717 257.094C357.624 255.691 357.495 253.732 357.343 251.293C357.19 248.854 357.014 245.745 356.815 242.295C356.815 241.423 356.709 240.525 356.663 239.616C356.591 238.644 356.67 237.666 356.897 236.721C357.414 234.704 358.365 232.846 359.675 231.3L359.828 231.123L360.015 231.25L362.722 233.069H362.371L372.827 220.962L372.745 221.228C372.546 219.777 372.546 218.304 372.745 216.855C372.851 216.09 373.089 215.351 373.447 214.681C373.841 213.983 374.465 213.472 375.194 213.253C375.566 213.145 375.957 213.15 376.326 213.269C376.694 213.387 377.025 213.614 377.281 213.923C377.746 214.485 378.094 215.149 378.301 215.869C378.655 217.221 378.902 218.604 379.039 220.002C379.239 221.341 379.425 222.668 379.613 223.957C380.34 229.152 381.02 233.967 381.629 238.251V238.364L377.715 253.531C377.246 255.283 376.855 256.673 376.543 257.701C376.425 258.144 376.32 258.497 376.238 258.787C376.208 258.911 376.164 259.03 376.109 259.142C376.108 259.013 376.127 258.884 376.167 258.762C376.167 258.472 376.308 258.106 376.401 257.663C376.648 256.626 376.976 255.224 377.398 253.454C378.301 249.764 379.567 244.608 381.114 238.289V238.402C380.481 234.119 379.778 229.304 379.016 224.109C378.828 222.845 378.629 221.48 378.429 220.14C378.302 218.789 378.058 217.452 377.703 216.147C377.521 215.516 377.223 214.931 376.824 214.429C376.639 214.203 376.399 214.04 376.131 213.957C375.863 213.874 375.579 213.875 375.312 213.961C374.739 214.208 374.245 214.631 373.891 215.176C373.537 215.721 373.338 216.366 373.319 217.031C373.125 218.41 373.125 219.811 373.319 221.19V221.353L373.226 221.468L362.734 233.537L362.571 233.727L362.383 233.587L359.687 231.768H360.015C358.762 233.24 357.844 235.005 357.331 236.924C357.041 238.715 357.001 240.542 357.213 242.346C357.366 245.796 357.506 248.817 357.612 251.331C357.717 253.847 357.787 255.742 357.835 257.145C357.835 257.777 357.835 258.282 357.835 258.687C357.874 258.835 357.897 258.988 357.905 259.142Z" fill="#FF9A6C"/>
<path d="M361.646 236.241C362.191 236.471 362.747 236.669 363.311 236.836C363.311 236.836 362.736 242.434 364.306 242.649C368.198 243.192 368.093 237.682 368.093 237.682C368.093 237.682 368.726 241.158 370.73 241.133C372.734 241.106 374.036 240.563 373.661 236.608L372.992 229.429C372.882 228.69 372.518 228.022 371.972 227.559L370.144 226.168L374.598 227.268C374.598 227.268 376.544 231.06 378.572 229.973C379.007 229.706 379.338 229.281 379.506 228.772C379.674 228.265 379.667 227.708 379.487 227.205C379.027 225.624 378.368 224.118 377.529 222.731C376.357 221.278 370.109 218.434 368.726 219.079C367.343 219.723 366.522 224.007 366.522 224.007C366.522 224.007 363.381 224.513 362.56 229.062C361.114 229.914 359.901 231.161 359.044 232.677" fill="#FFBF9D"/>
<path d="M359.054 232.728C359.054 232.728 359.054 232.614 359.195 232.412C359.355 232.112 359.535 231.824 359.734 231.553C360.486 230.498 361.427 229.617 362.501 228.962L362.419 229.076C362.578 227.997 362.95 226.966 363.509 226.055C364.198 224.918 365.263 224.105 366.486 223.781L366.31 223.97C366.502 222.982 366.773 222.014 367.119 221.075C367.302 220.564 367.538 220.076 367.823 219.622C367.981 219.368 368.185 219.149 368.42 218.978C368.673 218.799 368.973 218.71 369.275 218.725C370.377 218.81 371.46 219.074 372.487 219.509C373.568 219.924 374.622 220.418 375.641 220.987C376.183 221.281 376.7 221.624 377.188 222.011C377.693 222.437 378.094 222.987 378.36 223.616C378.948 224.831 379.434 226.1 379.814 227.408C379.898 227.793 379.903 228.193 379.825 228.58C379.748 228.967 379.592 229.331 379.368 229.644C379.132 229.967 378.817 230.214 378.459 230.356C378.102 230.499 377.715 230.533 377.34 230.453C376.64 230.225 376.013 229.787 375.535 229.189C375.053 228.645 374.635 228.038 374.293 227.383L374.491 227.546L373.706 227.356L370.037 226.447L370.283 225.853L372.113 227.256C372.468 227.625 372.768 228.052 373.003 228.519C373.113 228.771 373.184 229.04 373.214 229.316V230.049C373.308 231.01 373.39 231.958 373.472 232.892C373.555 233.827 373.648 234.75 373.73 235.647C373.834 236.552 373.873 237.466 373.847 238.377C373.868 238.862 373.78 239.346 373.59 239.785C373.4 240.226 373.115 240.609 372.757 240.905C372.032 241.295 371.218 241.452 370.413 241.36C370.014 241.292 369.635 241.122 369.309 240.865C368.983 240.608 368.719 240.271 368.537 239.882C368.173 239.206 367.911 238.472 367.763 237.708H368.232C368.295 239.305 367.783 240.867 366.802 242.068C366.31 242.563 365.67 242.854 364.997 242.889C364.69 242.933 364.378 242.933 364.071 242.889C363.931 242.799 363.809 242.678 363.714 242.534C363.619 242.391 363.553 242.227 363.52 242.055C363.197 241.066 363.062 240.018 363.122 238.971C363.13 238.236 363.177 237.501 363.262 236.773L363.333 236.873L362.078 236.38C361.943 236.334 361.813 236.271 361.692 236.191C361.837 236.201 361.979 236.236 362.114 236.292L363.368 236.696H363.438V236.773C363.404 237.496 363.404 238.222 363.438 238.946C363.412 239.941 363.563 240.932 363.884 241.866C364.013 242.08 364.154 242.321 364.365 242.358C364.629 242.391 364.897 242.391 365.162 242.358C365.747 242.317 366.3 242.053 366.72 241.613C367.599 240.49 368.044 239.047 367.963 237.581V235.445L368.408 237.531C368.551 238.229 368.797 238.899 369.135 239.515C369.275 239.838 369.484 240.121 369.744 240.341C370.005 240.56 370.311 240.71 370.636 240.778C371.345 240.853 372.059 240.713 372.698 240.374C372.974 240.128 373.192 239.816 373.335 239.462C373.477 239.109 373.54 238.724 373.519 238.339C373.535 237.46 373.487 236.582 373.378 235.71C373.297 234.813 373.202 233.891 373.121 232.956L372.851 230.112L372.78 229.392C372.762 229.185 372.71 228.985 372.628 228.797C372.413 228.399 372.145 228.037 371.831 227.723L370.002 226.333L368.748 225.373L370.248 225.74L373.917 226.649L374.691 226.838H374.82L374.89 226.965C375.443 228.181 376.383 229.141 377.54 229.67C377.803 229.728 378.077 229.706 378.33 229.606C378.583 229.505 378.804 229.33 378.969 229.101C379.137 228.863 379.254 228.587 379.312 228.294C379.368 228.001 379.363 227.698 379.298 227.408C378.937 226.153 378.475 224.934 377.914 223.767C377.685 223.211 377.33 222.725 376.883 222.353C376.417 221.99 375.928 221.665 375.418 221.38C374.42 220.82 373.391 220.33 372.335 219.913C371.373 219.492 370.357 219.228 369.323 219.129C369.106 219.122 368.891 219.18 368.703 219.295C368.514 219.411 368.36 219.581 368.256 219.787C367.981 220.201 367.757 220.651 367.588 221.126C367.244 222.032 366.969 222.966 366.767 223.919V224.071H366.627C365.507 224.359 364.528 225.089 363.884 226.118C363.334 226.978 362.955 227.95 362.77 228.974V229.051C361.714 229.658 360.773 230.473 359.992 231.451C359.312 232.336 359.089 232.753 359.054 232.728Z" fill="#FF9A6C"/>
<path d="M362.267 229.417C362.267 229.329 362.876 229.227 363.826 229.417C365.076 229.765 366.184 230.548 366.979 231.645C367.774 232.742 368.211 234.091 368.222 235.483C368.222 236.545 367.987 237.151 367.916 237.126C367.84 236.591 367.797 236.05 367.788 235.509C367.648 234.256 367.203 233.066 366.498 232.058C365.767 231.067 364.799 230.311 363.696 229.872C363.212 229.752 362.734 229.6 362.267 229.417Z" fill="#FF9A6C"/>
<path d="M515.397 695.203C507.307 695.069 499.28 693.643 491.577 690.972C474.965 685.486 462.721 673.102 455.186 654.189C448.829 638.223 447.01 620.34 446.2 608.296C444.381 581.499 459.764 499.076 462.865 483.957C465.245 472.377 466.71 442.59 456.049 424.509C454.235 421.189 451.801 418.313 448.901 416.062C445.999 413.811 442.697 412.235 439.201 411.435C412.084 405.314 385.203 441.885 382.952 444.987L323.774 560.78L316.776 556.379L376.216 440.065L376.373 439.84C377.681 438.021 407.623 395.3 440.784 402.76C449.941 404.834 457.397 410.532 462.799 419.685C474.415 439.431 473.814 470.741 470.647 485.874C465.886 509.09 452.57 584.15 454.153 607.619C455.984 634.726 462.093 671.989 493.814 682.468C526.949 693.398 540.108 679.647 549.853 665.825C560.736 650.41 567.46 642.638 576.25 640.128C589.685 636.306 598.279 642.047 603.655 647.251L598.227 655.29C597.978 654.853 589.2 645.6 578.291 648.703C571.75 650.55 565.772 657.744 556.236 671.269C547.603 683.553 535.974 695.203 515.397 695.203Z" fill="#4A4566"/>
<path d="M267.713 669.404L260.1 664.664L318.076 554.655L325.675 559.394L267.713 669.404Z" fill="#DCDDEB"/>
<path d="M213.318 675.598C213.318 675.598 209.277 675.965 207.929 677.248C206.582 678.532 195.123 703.326 195.123 703.326V711.224H227.014L234.589 688.996L235.177 679.688C235.211 679.167 235.146 678.645 234.986 678.152C234.825 677.66 234.573 677.208 234.244 676.825C233.916 676.442 233.518 676.136 233.076 675.925C232.633 675.713 232.155 675.602 231.672 675.598H213.318Z" fill="#0075FF"/>
<path d="M265.512 647.799L256.434 667.346L244.02 674.398L250.783 686.274L261.024 680.039C263.943 678.241 266.333 675.591 267.919 672.395L276.722 654.654L265.512 647.799Z" fill="#4A4566"/>
<path d="M209.656 684.877H231.763V698.206H245.328C245.328 698.206 249.056 697.36 249.959 694.553C250.573 691.847 250.889 689.073 250.901 686.288L244.02 674.398L236.393 678.629H217.727C216.325 678.628 214.947 679.016 213.725 679.757C212.504 680.499 211.481 681.567 210.755 682.861L209.656 684.877Z" fill="#1D53BB"/>
<path d="M209.656 684.878V684.764C209.713 684.632 209.778 684.505 209.853 684.384L210.637 682.888C211.068 682.093 211.611 681.374 212.246 680.759C213.109 679.917 214.131 679.287 215.242 678.911C215.888 678.677 216.561 678.539 217.243 678.502C217.95 678.502 218.682 678.502 219.454 678.502H224.438H236.355L244.033 674.271L244.151 674.201V674.328L250.913 686.189C250.896 688.167 250.751 690.141 250.482 692.099C250.384 692.853 250.23 693.599 250.024 694.327C249.801 695.068 249.41 695.737 248.886 696.273C247.882 697.284 246.658 698.007 245.328 698.375H231.619V698.22C231.619 693.41 231.619 688.94 231.619 684.891L231.737 685.033L215.569 684.948H211.16H215.621L231.684 684.863H231.802V684.991C231.802 689.038 231.802 693.453 231.802 698.318L231.658 698.163H245.132C246.432 697.851 247.637 697.192 248.637 696.245C249.549 695.151 250.08 693.751 250.142 692.281C250.404 690.333 250.548 688.369 250.574 686.401V686.5L243.81 674.624H243.993L236.328 678.784H224.411H219.493C218.734 678.784 217.989 678.784 217.282 678.784C216.617 678.828 215.958 678.956 215.32 679.165C214.235 679.527 213.235 680.138 212.39 680.957C211.757 681.554 211.214 682.253 210.781 683.03L209.957 684.44L209.735 684.821L209.656 684.878Z" fill="#263238"/>
<path d="M736.074 622.523C730.658 613.567 724.393 608.589 706.825 606.402H702.234C668.341 607.616 638.294 614.864 609.895 634.864C602.595 639.984 595.178 647.092 594.734 656.457C594.25 666.329 601.72 674.51 609.555 679.587C625.108 689.672 643.565 692.704 661.604 695.328C674.541 697.202 687.765 698.98 700.624 696.738C713.483 694.495 726.342 687.781 733.406 675.934C738.377 667.613 740.116 657.487 740.403 647.586C740.665 638.983 740.43 629.716 736.074 622.523Z" fill="#0075FF"/>
<path d="M712.855 637.953C712.749 637.898 712.652 637.827 712.568 637.741L711.782 637.092C710.734 636.3 709.617 635.62 708.447 635.062C705.412 633.58 700.598 632.706 694.62 632.777C682.69 632.932 666.052 633.496 648.34 638.292C640.004 640.423 631.849 643.301 623.957 646.895C620.521 648.468 617.217 650.355 614.08 652.536C612.669 653.523 611.354 654.662 610.156 655.935C609.111 657.144 608.23 658.507 607.54 659.983C606.95 661.333 606.512 662.753 606.232 664.214C606.003 665.544 605.911 666.897 605.957 668.248C606.067 670.422 606.509 672.562 607.266 674.581C607.949 676.286 608.753 677.932 609.673 679.503C609.673 679.503 609.594 679.418 609.45 679.22C609.306 679.023 609.11 678.698 608.861 678.346C608.55 677.867 608.267 677.368 608.011 676.851C607.633 676.158 607.301 675.437 607.016 674.693C606.22 672.65 605.751 670.475 605.63 668.262C605.563 666.879 605.642 665.493 605.865 664.129C606.414 660.888 607.817 657.887 609.908 655.484C611.105 654.176 612.419 653 613.832 651.972C616.985 649.75 620.311 647.829 623.774 646.231C631.678 642.601 639.858 639.709 648.222 637.586C666.025 632.762 682.729 632.283 694.673 632.255C700.663 632.255 705.556 633.214 708.604 634.807C709.779 635.389 710.89 636.113 711.914 636.965L712.672 637.684C712.789 637.854 712.868 637.939 712.855 637.953Z" fill="#211F54"/>
<path d="M596.068 656.063C595.701 656.733 595.118 657.233 594.43 657.47C593.743 657.706 592.999 657.663 592.34 657.346C591.685 657.036 591.031 656.754 590.378 656.43C589.638 656.134 588.969 655.666 588.417 655.059C587.865 654.452 587.445 653.72 587.186 652.918C587.006 651.454 587.278 649.969 587.958 648.687C589.109 645.866 590.364 643.2 591.752 640.563C592.284 639.333 593.087 638.263 594.092 637.446C594.766 637.027 595.515 636.768 596.289 636.687C597.063 636.608 597.844 636.707 598.58 636.981C600.045 637.536 601.433 638.309 602.7 639.279C602.7 639.279 603.734 639.604 603.236 641.945C602.87 643.68 598.514 651.832 596.068 656.063Z" fill="#211F54"/>
<path d="M647.842 637.798C646.473 634.54 645.315 631.184 644.376 627.755C643.228 624.404 642.288 620.974 641.563 617.488C644.088 624.094 646.185 630.879 647.842 637.798Z" fill="#211F54"/>
<g opacity="0.3">
<path opacity="0.3" d="M739.581 689.148C751.499 676.298 751.499 655.464 739.581 642.615C727.663 629.765 708.341 629.765 696.423 642.615C684.505 655.464 684.505 676.298 696.423 689.148C708.341 701.998 727.663 701.998 739.581 689.148Z" fill="black"/>
</g>
<path d="M744.123 692.298C756.041 679.449 756.041 658.615 744.123 645.765C732.205 632.916 712.882 632.916 700.964 645.765C689.046 658.615 689.046 679.449 700.964 692.298C712.882 705.149 732.205 705.149 744.123 692.298Z" fill="#143C8B"/>
<path d="M722.666 696.526C717.617 696.526 712.683 694.912 708.486 691.888C704.288 688.864 701.017 684.565 699.086 679.537C697.155 674.508 696.651 668.975 697.636 663.637C698.622 658.298 701.053 653.395 704.624 649.548C708.195 645.7 712.743 643.08 717.695 642.02C722.646 640.96 727.778 641.508 732.441 643.592C737.104 645.677 741.089 649.206 743.892 653.733C746.694 658.259 748.189 663.581 748.187 669.024C748.176 676.317 745.484 683.308 740.699 688.464C735.915 693.619 729.43 696.519 722.666 696.526ZM722.666 642.931C717.877 642.931 713.195 644.463 709.214 647.331C705.232 650.2 702.128 654.277 700.296 659.048C698.463 663.818 697.983 669.067 698.918 674.131C699.853 679.195 702.159 683.847 705.544 687.498C708.93 691.149 713.245 693.635 717.942 694.643C722.639 695.649 727.507 695.132 731.931 693.157C736.356 691.181 740.138 687.836 742.798 683.542C745.459 679.249 746.878 674.201 746.878 669.038C746.875 662.114 744.323 655.474 739.783 650.578C735.243 645.68 729.087 642.925 722.666 642.918V642.931Z" fill="#0075FF"/>
<path d="M452.255 229.378C452.255 229.378 470.491 225.401 482.538 234.526C489.497 239.801 512.807 283.593 512.807 283.593L478.313 302.859L452.255 229.378Z" fill="#0075FF"/>
<path d="M480.485 301.646L486.319 325.622L449.195 368.131L457.528 388.793C457.528 388.793 508.138 354.464 514.953 343.577C521.768 332.689 517.425 316.342 515.752 310.362C514.077 304.382 508.479 286.047 508.479 286.047L480.485 301.646Z" fill="#FFBF9D"/>
<path d="M404.915 416.213C404.915 416.213 419.004 398.259 420.352 396.637C421.698 395.015 438.927 378.64 438.927 378.64L449.953 367.356L462.302 383.097L456.599 389.894C456.599 389.894 455.29 395.537 453.642 397.949C451.994 400.36 439.253 401.15 439.253 401.15L437.382 407.679L439.031 410.401L442.589 409.979C442.589 409.979 442.589 413.857 440.391 414.577C438.728 414.973 437 414.929 435.355 414.45C434.99 415.191 434.405 415.779 433.695 416.122C432.984 416.465 432.187 416.541 431.431 416.339C431.008 416.198 430.606 415.989 430.241 415.719C428.548 414.523 427.262 412.766 426.578 410.712L425.715 408.201L424.773 413.449L428.265 416.96C428.518 417.21 428.694 417.537 428.77 417.898C428.846 418.258 428.817 418.636 428.69 418.979C428.562 419.322 428.341 419.615 428.054 419.819C427.768 420.022 427.431 420.127 427.087 420.12H426.591C424.518 419.466 422.569 418.42 420.835 417.03C419.357 415.972 418.821 413.532 418.781 411.615L419.305 409.373C419.305 409.373 409.939 417.186 407.532 418.202C405.662 418.977 404.915 416.213 404.915 416.213Z" fill="#FFBF9D"/>
<path d="M504.763 328.444C501.751 327.335 498.668 326.458 495.541 325.82C492.376 325.428 489.188 325.283 486.005 325.383C486.9 325.04 487.841 324.855 488.791 324.833C491.077 324.636 493.377 324.72 495.645 325.086C497.909 325.458 500.127 326.111 502.252 327.034C503.149 327.365 503.995 327.841 504.763 328.444Z" fill="#FF9A6C"/>
<path d="M424.838 395.931C424.903 396.044 424.197 396.594 423.294 397.722C422.136 399.213 421.249 400.926 420.678 402.771C420.103 404.611 419.665 406.497 419.37 408.413C419.29 409.237 419.114 410.048 418.846 410.825C418.721 410.003 418.721 409.164 418.846 408.342C419.026 406.342 419.426 404.373 420.036 402.475C420.632 400.545 421.624 398.784 422.941 397.328C423.461 396.706 424.111 396.227 424.838 395.931Z" fill="#FF9A6C"/>
<path d="M431.209 395.31C431.209 395.422 430.568 395.888 429.652 396.861C428.464 398.14 427.53 399.666 426.906 401.347C425.428 405.324 425.597 408.934 425.388 408.906C425.173 408.158 425.11 407.369 425.205 406.593C425.252 404.697 425.611 402.825 426.264 401.065C426.921 399.29 427.972 397.715 429.325 396.481C429.852 395.926 430.5 395.523 431.209 395.31Z" fill="#FF9A6C"/>
<path d="M435.578 395.31C435.121 396.25 434.592 397.146 433.995 397.989C432.621 399.994 431.775 402.363 431.549 404.844C431.632 407.337 432.372 409.754 433.681 411.812C434.24 412.676 434.734 413.586 435.159 414.534C434.421 413.827 433.785 413.005 433.276 412.094C432.651 411.143 432.116 410.127 431.68 409.061C431.122 407.733 430.846 406.288 430.868 404.83C431.085 402.207 432.039 399.717 433.603 397.694C434.144 396.795 434.811 395.992 435.578 395.31Z" fill="#FF9A6C"/>
<path d="M512.807 283.594C512.604 283.764 512.385 283.911 512.153 284.032L510.205 285.202L502.932 289.433L478.47 303.227L478.13 303.424L477.999 303.029C477.593 301.844 477.175 300.575 476.691 299.305C472.661 287.458 469.012 276.74 466.344 268.869C465.035 265.062 463.911 261.945 463.125 259.688L462.25 257.191C462.122 256.909 462.03 256.611 461.974 256.303C462.135 256.563 462.266 256.842 462.367 257.135C462.616 257.685 462.956 258.545 463.374 259.575C464.225 261.704 465.389 264.822 466.789 268.686C469.588 276.415 473.329 287.163 477.332 299.051C477.764 300.335 478.182 301.59 478.639 302.775L478.156 302.578L502.709 288.996L510.087 285.005L512.088 283.96C512.309 283.801 512.552 283.677 512.807 283.594Z" fill="#263238"/>
<path d="M401.516 257.382C401.508 257.626 401.481 257.868 401.433 258.107L401.102 260.139C400.807 261.905 400.33 264.453 399.731 267.596C398.545 273.894 396.66 282.531 395.253 292.201C394.593 296.74 394.16 301.315 393.956 305.906C393.919 306.97 393.882 308.002 393.845 309C393.845 309.991 393.845 310.983 393.845 311.915C393.845 313.8 393.965 315.555 394.02 317.152C394.231 320.345 394.452 322.933 394.7 324.708C394.793 325.561 394.875 326.236 394.931 326.761C394.969 327 394.984 327.242 394.976 327.484C394.914 327.251 394.868 327.013 394.838 326.77C394.756 326.256 394.646 325.581 394.516 324.788C394.213 323.023 393.937 320.434 393.679 317.231C393.607 315.624 393.44 313.869 393.45 311.975C393.45 310.983 393.45 310.051 393.45 309C393.45 307.949 393.505 306.957 393.533 305.895C393.713 301.287 394.127 296.691 394.774 292.131C396.191 282.433 398.131 273.805 399.373 267.538C400.008 264.443 400.522 261.925 400.89 260.11C401.065 259.277 401.203 258.602 401.305 258.126C401.348 257.87 401.419 257.62 401.516 257.382Z" fill="#263238"/>
<path opacity="0.3" d="M398.772 270.763C389.086 287.306 387.159 304.203 387.68 323.759L394.919 327.486C393.682 309.994 395.492 286.978 398.772 270.763Z" fill="black"/>
<path d="M284.351 2.73417H118.926V323.145H284.351V2.73417Z" fill="#F7F9FC"/>
<path d="M276.04 12.0341H125.54V313.61H276.04V12.0341Z" fill="white"/>
<path d="M291.351 326.038L284.351 323.144V-2.69301H291.351V326.038Z" fill="#DCDDEB"/>
<path d="M162.436 206.829L201.516 167.66C206.471 162.694 212.946 157.353 219.317 159.793C222.376 160.97 224.683 163.788 227.688 165.145C233.684 167.84 240.543 163.948 245.167 159.011C249.789 154.074 253.416 147.893 259.009 144.312C264.602 140.732 273.28 141.193 276.05 147.534V190.17L219.247 216.382L162.436 206.829Z" fill="white"/>
<path d="M125.54 182.33C139.942 175.998 154.317 181.388 164.62 193.929C166.796 196.577 168.771 199.582 171.751 201.08C175.788 203.059 180.489 201.579 184.859 201.08C190.91 200.435 197.008 201.609 202.479 204.468C207.949 207.329 212.579 211.765 215.856 217.286L167.792 242.783L125.557 242.453L125.54 182.33Z" fill="#DCDDEB"/>
<path d="M276.04 182.537C266.55 177.601 258.205 183.574 249.448 189.896C240.692 196.219 232.565 204.331 222.297 206.857C215.437 208.562 208.087 207.61 201.454 210.164C187.953 215.346 180.14 233.842 165.817 234.727C158.049 235.208 151.075 230.119 144.136 226.313C137.198 222.507 131.727 218.879 125.54 223.977V313.582H276.04V182.537Z" fill="#EFF0F7"/>
<path d="M279.309 98.7845H125.54V101.998H279.309V98.7845Z" fill="#DCDDEB"/>
<path d="M279.309 170.599H125.54V173.813H279.309V170.599Z" fill="#DCDDEB"/>
<path d="M279.309 242.416H125.54V245.629H279.309V242.416Z" fill="#DCDDEB"/>
<path d="M196.98 100.386V322.146H204.583V100.386H196.98Z" fill="#DCDDEB"/>
<path d="M157.961 12.0341H154.518V100.395H157.961V12.0341Z" fill="#DCDDEB"/>
<path d="M187.674 12.0341H184.23V100.395H187.674V12.0341Z" fill="#DCDDEB"/>
<path d="M217.377 12.0341H213.933V100.395H217.377V12.0341Z" fill="#DCDDEB"/>
<path d="M247.088 12.0341H243.646V100.395H247.088V12.0341Z" fill="#DCDDEB"/>
<path d="M118.933 -2.69301H111.934V325.133H118.933V-2.69301Z" fill="#DCDDEB"/>
<path d="M291.351 -6H111.934V2.74379H291.351V-6Z" fill="#DCDDEB"/>
<path d="M296.087 327.112H106.97V335.253H296.087V327.112Z" fill="#DCDDEB"/>
<path d="M284.351 323.145L296.087 327.111H106.97L118.925 323.145H284.351Z" fill="#DCDDEB"/>
<path d="M202.048 660.584C202.674 666.138 209.567 668.561 213.827 666.041C215.93 664.691 217.537 662.604 218.38 660.128C219.221 657.651 219.248 654.939 218.453 652.444C222.208 655.445 228.209 652.674 229.768 647.915C231.326 643.158 229.151 637.68 225.537 634.472C222.622 631.886 218.088 630.609 215.154 633.173C216.621 627.718 212.613 621.508 207.412 620.472C202.209 619.435 196.723 623.102 194.669 628.362C192.615 633.621 193.718 639.961 196.875 644.544C193.789 643.136 189.922 645.548 188.991 649.017C188.06 652.488 189.71 656.384 192.433 658.501C195.269 660.503 198.708 661.265 202.048 660.628" fill="#DCDDEB"/>
<defs>
<filter id="filter0_i_1_50" x="117.4" y="377.737" width="501.019" height="260.854" filterUnits="userSpaceOnUse" color-interpolation-filters="sRGB">
<feFlood flood-opacity="0" result="BackgroundImageFix"/>
<feBlend mode="normal" in="SourceGraphic" in2="BackgroundImageFix" result="shape"/>
<feColorMatrix in="SourceAlpha" type="matrix" values="0 0 0 0 0 0 0 0 0 0 0 0 0 0 0 0 0 0 127 0" result="hardAlpha"/>
<feOffset dx="10.3953" dy="-8.31627"/>
<feGaussianBlur stdDeviation="2"/>
<feComposite in2="hardAlpha" operator="arithmetic" k2="-1" k3="1"/>
<feColorMatrix type="matrix" values="0 0 0 0 0.127552 0 0 0 0 0.123438 0 0 0 0 0.329167 0 0 0 0.06 0"/>
<feBlend mode="normal" in2="shape" result="effect1_innerShadow_1_50"/>
</filter>
</defs>
</svg>
